<svg width="24" height="24" viewBox="0 0 24 24" fill="none" xmlns="http://www.w3.org/2000/svg">
<g clip-path="url(#clip0_3080_1803)">
<path d="M23.9864 11.4258C23.985 11.3958 23.9836 11.3653 23.9817 11.3353C23.9812 11.3175 23.9798 11.2997 23.9789 11.2814C23.9719 11.1619 23.963 11.0423 23.9527 10.9228C23.9405 10.7859 23.9259 10.6495 23.9095 10.5136C23.9034 10.4648 23.8973 10.4156 23.8903 10.3669C23.8838 10.3181 23.8772 10.2694 23.8697 10.2211C23.8547 10.1194 23.8387 10.0177 23.8209 9.91687C23.8134 9.87281 23.8055 9.82875 23.797 9.78516C23.7881 9.73687 23.7792 9.68859 23.7694 9.64078C23.76 9.5925 23.7502 9.54469 23.7398 9.49688C23.7211 9.40734 23.7014 9.31828 23.6803 9.22969C23.6681 9.17906 23.6559 9.12844 23.6437 9.07781C23.5594 8.73938 23.4605 8.40563 23.347 8.07703C23.3311 8.03016 23.3147 7.98375 23.2978 7.93734C23.2505 7.80422 23.2003 7.67156 23.1473 7.54031C23.1295 7.49531 23.1112 7.45031 23.0925 7.40531C23.0766 7.36641 23.0602 7.32797 23.0438 7.28906C23.0255 7.24594 23.0067 7.20281 22.9875 7.16016C22.9706 7.12172 22.9538 7.08375 22.9364 7.04578C22.9228 7.01531 22.9088 6.98531 22.8947 6.95484C22.89 6.94359 22.8844 6.93281 22.8792 6.92156C22.8642 6.88969 22.8492 6.85734 22.8337 6.82547C22.7991 6.75187 22.763 6.67922 22.7264 6.60703C22.7053 6.56437 22.6833 6.52219 22.6613 6.47953C22.6111 6.3825 22.5591 6.28594 22.5056 6.19031C22.492 6.165 22.4784 6.14016 22.4639 6.11531C22.4527 6.09469 22.4409 6.07453 22.4292 6.05438H22.4288C22.4123 6.02531 22.3964 5.99625 22.3795 5.96766C22.3538 5.92406 22.3284 5.88094 22.3027 5.83828C22.2122 5.68734 22.118 5.53828 22.0205 5.39109C21.9703 5.31563 21.9202 5.24109 21.8681 5.16656C21.8339 5.11688 21.7992 5.06813 21.7641 5.01937C21.735 4.97859 21.7055 4.93781 21.6755 4.8975C21.6628 4.87969 21.6497 4.86234 21.6366 4.845C21.5883 4.77984 21.5391 4.71562 21.4894 4.65188C21.4289 4.57406 21.367 4.49672 21.3042 4.41984C21.2883 4.40063 21.2723 4.38094 21.2559 4.36125C21.1106 4.18547 20.9602 4.01391 20.8041 3.84562C20.782 3.82219 20.76 3.79828 20.7375 3.77437L20.7333 3.77016C20.7019 3.73688 20.6705 3.70359 20.6381 3.67078C20.588 3.61828 20.5369 3.56625 20.4853 3.51469C20.4483 3.47766 20.4113 3.44109 20.3738 3.405C20.3517 3.38297 20.3292 3.36141 20.3067 3.33984C20.273 3.30703 20.2387 3.27469 20.2041 3.24234C20.1628 3.20344 20.1211 3.165 20.0794 3.12703C20.0334 3.08484 19.987 3.04359 19.9406 3.00234C19.8909 2.95828 19.8413 2.91469 19.7906 2.87203C19.7583 2.84344 19.725 2.81578 19.6917 2.78813C19.6528 2.75531 19.6134 2.72297 19.5741 2.69063C19.5347 2.65828 19.4953 2.62641 19.4555 2.595C19.4231 2.56922 19.3903 2.54344 19.3575 2.51766C19.3228 2.49094 19.2881 2.46375 19.253 2.4375C19.2305 2.42016 19.208 2.40328 19.1855 2.38641C19.1583 2.36578 19.1311 2.34516 19.1034 2.325C19.0898 2.31516 19.0763 2.30531 19.0627 2.295C19.0355 2.27578 19.0087 2.25609 18.9811 2.23641C18.9366 2.20406 18.892 2.17266 18.8466 2.14125C18.7641 2.08313 18.6806 2.02688 18.5963 1.97109C18.548 1.93922 18.4997 1.90781 18.4509 1.87688C18.4069 1.84875 18.3628 1.82062 18.3187 1.79344C18.3075 1.78594 18.2953 1.77844 18.2836 1.77141C18.2475 1.74891 18.2109 1.72734 18.1748 1.70531C18.1603 1.69641 18.1458 1.68797 18.1312 1.67906C18.0867 1.65234 18.0422 1.62609 17.9972 1.60031C17.9475 1.57125 17.8978 1.54313 17.8472 1.515C17.8242 1.50188 17.8013 1.48922 17.7778 1.47656C17.6466 1.40391 17.5139 1.33406 17.3794 1.26703C17.3475 1.25063 17.3156 1.23469 17.2833 1.21922C17.2514 1.20328 17.2195 1.18781 17.1872 1.17234C17.1548 1.15688 17.123 1.14141 17.0906 1.12641C17.0583 1.11094 17.0259 1.09594 16.9936 1.08141C16.8173 1.00078 16.6392 0.924375 16.4597 0.852656C16.4147 0.834375 16.3692 0.816562 16.3237 0.799219C16.2783 0.781875 16.2328 0.764531 16.1873 0.747656C16.1527 0.734531 16.118 0.721875 16.0828 0.709219C16.0209 0.686719 15.9591 0.665156 15.8967 0.644063C15.8559 0.63 15.8152 0.616406 15.7744 0.602812C15.5114 0.515625 15.2452 0.438281 14.9761 0.369844C14.9405 0.360938 14.9044 0.352031 14.8683 0.343125C14.8275 0.333281 14.7872 0.323437 14.7459 0.314062C14.7117 0.305625 14.6775 0.298125 14.6428 0.290156C14.5964 0.279844 14.55 0.27 14.5031 0.260156C14.4708 0.253125 14.4384 0.246562 14.4056 0.24C14.3808 0.234844 14.3564 0.230156 14.3316 0.225469C14.0784 0.175312 13.8234 0.134062 13.5661 0.100781C13.5314 0.0960938 13.4963 0.091875 13.4611 0.0876563C13.3495 0.0740625 13.238 0.0623438 13.1259 0.0520312C13.125 0.0515625 13.1245 0.0515625 13.1241 0.0520312C13.0852 0.0478125 13.0458 0.0445312 13.0064 0.0417188C12.9056 0.0328125 12.8044 0.0257812 12.7031 0.020625C12.6792 0.01875 12.6548 0.0173438 12.6309 0.0164062C12.607 0.015 12.5831 0.0140625 12.5588 0.013125C12.5498 0.0126563 12.5414 0.0121875 12.5325 0.0121875C12.4772 0.009375 12.4219 0.0075 12.3666 0.005625C12.3591 0.00515625 12.3511 0.00515625 12.3431 0.00515625C12.2869 0.00328125 12.2306 0.001875 12.1739 0.00140625C12.1163 0.00046875 12.0581 0 12 0C11.7647 0 11.5303 0.0065625 11.2969 0.020625C9.62906 0.115781 8.02547 0.551719 6.56672 1.29422C6.52547 1.31531 6.48469 1.33641 6.44391 1.35797C6.32109 1.42172 6.19875 1.48828 6.07828 1.55719C5.83172 1.69734 5.58984 1.84641 5.35312 2.00437C5.23781 2.08172 5.12391 2.16094 5.01094 2.24203C4.48359 2.62125 3.98297 3.04641 3.51469 3.51469C3.02719 4.00219 2.58656 4.52484 2.19563 5.07609C2.10984 5.19656 2.02688 5.31844 1.94578 5.44172C1.68797 5.83547 1.45453 6.24234 1.24641 6.66141C0.526406 8.10797 0.105937 9.69422 0.0178125 11.3423C0.00609375 11.5608 0 11.7797 0 12C0 12.2508 0.0075 12.5002 0.0229688 12.7486C0.0304688 12.8761 0.0403125 13.0031 0.0525 13.1302C0.177656 14.483 0.528281 15.788 1.08516 17.002C1.14984 17.1427 1.21687 17.2819 1.28719 17.4197C1.49859 17.8369 1.73531 18.2423 1.99594 18.6342C2.43469 19.2928 2.94234 19.913 3.51469 20.4853C4.10531 21.0759 4.74703 21.5977 5.42906 22.0453C5.82234 22.3041 6.22922 22.5384 6.64828 22.747C6.76641 22.8061 6.88547 22.8633 7.00547 22.9181C8.22516 23.4769 9.53719 23.827 10.8966 23.9498C11.0395 23.9634 11.183 23.9738 11.3269 23.9813C11.55 23.9939 11.7745 24 12 24C12.0745 24 12.1486 23.9995 12.2227 23.9977C12.2616 23.9972 12.3005 23.9963 12.3389 23.9948C12.3427 23.9953 12.3464 23.9953 12.3502 23.9948C12.3647 23.9944 12.3792 23.9944 12.3937 23.9934C12.3961 23.9934 12.3989 23.9934 12.4012 23.993C12.4509 23.9916 12.5006 23.9897 12.5503 23.9873C12.6042 23.985 12.6581 23.9822 12.7116 23.9789C12.7186 23.9789 12.7256 23.9784 12.7331 23.978C12.7875 23.9747 12.8419 23.9714 12.8958 23.9672C12.9947 23.9597 13.0936 23.9513 13.192 23.9419C13.2436 23.9367 13.2956 23.9316 13.3472 23.9255C13.3983 23.9198 13.4494 23.9137 13.5 23.9077C13.5445 23.9025 13.5886 23.8964 13.6331 23.8903C13.6636 23.8866 13.6936 23.8823 13.7241 23.8777C13.7452 23.8748 13.7663 23.8716 13.7873 23.8683C13.8333 23.8617 13.8792 23.8547 13.9247 23.8472C13.9594 23.842 13.9936 23.8364 14.0278 23.8303C14.0536 23.8261 14.0798 23.8214 14.1056 23.8167C14.1103 23.8162 14.115 23.8153 14.1197 23.8144C14.1464 23.8097 14.1731 23.805 14.1994 23.7998C14.2092 23.7984 14.2191 23.7966 14.2289 23.7942C14.2552 23.7895 14.2809 23.7848 14.3067 23.7792C14.3123 23.7787 14.318 23.7778 14.3236 23.7759C14.3442 23.7722 14.3648 23.7684 14.385 23.7642C14.4248 23.7563 14.4637 23.7483 14.5031 23.7398C14.6273 23.7141 14.7506 23.6859 14.8734 23.6555C14.9156 23.6456 14.9573 23.6348 14.9991 23.6241C15.0239 23.618 15.0487 23.6114 15.0736 23.6048C15.1064 23.5964 15.1388 23.5875 15.1716 23.5786C15.1725 23.5786 15.173 23.5781 15.1739 23.5781C15.2133 23.5673 15.2531 23.5566 15.2925 23.5448C15.3272 23.535 15.3623 23.5252 15.397 23.5148C15.4636 23.4952 15.5306 23.475 15.5967 23.4544C15.6408 23.4408 15.6844 23.4267 15.728 23.4122C15.7758 23.3967 15.8236 23.3808 15.8714 23.3644C15.8953 23.3564 15.9192 23.3484 15.9431 23.34C15.967 23.332 15.9909 23.3236 16.0148 23.3147C16.0622 23.2978 16.11 23.2809 16.1573 23.2631C16.2047 23.2458 16.2516 23.2284 16.2989 23.2102C16.3458 23.1919 16.3931 23.1736 16.44 23.1548C16.4869 23.1361 16.5338 23.1173 16.5802 23.0981C16.627 23.0789 16.6734 23.0592 16.7198 23.0395C16.7227 23.0386 16.7259 23.0372 16.7292 23.0358C16.7855 23.0114 16.8417 22.987 16.898 22.9617C16.8998 22.9613 16.9017 22.9603 16.9036 22.9594C16.9594 22.9341 17.0147 22.9088 17.07 22.883C17.183 22.83 17.295 22.7756 17.4061 22.7194C17.4581 22.6931 17.5102 22.6664 17.5622 22.6392C17.6025 22.6181 17.6428 22.5966 17.6827 22.575C17.8008 22.5122 17.917 22.4466 18.0323 22.3795C18.0802 22.3514 18.1275 22.3233 18.1748 22.2947C18.2831 22.23 18.39 22.163 18.4959 22.0945C18.5381 22.0673 18.5798 22.0397 18.6216 22.012C18.7322 21.9389 18.8419 21.8634 18.9502 21.7856C19.0181 21.7373 19.0852 21.6881 19.1522 21.6384C19.2192 21.5887 19.2853 21.5386 19.3509 21.487L19.4297 21.4252C19.4691 21.3942 19.5084 21.3628 19.5473 21.3309C19.5802 21.3047 19.6125 21.278 19.6444 21.2512C19.6823 21.2198 19.7198 21.1884 19.7573 21.1566C20.0077 20.9442 20.2505 20.7202 20.4853 20.4853C20.5402 20.4305 20.5945 20.3752 20.648 20.3194C20.6803 20.2861 20.7122 20.2523 20.7436 20.2186C20.8055 20.1534 20.8655 20.0878 20.9255 20.0217C20.9822 19.9584 21.0384 19.8952 21.0938 19.8309C21.0994 19.8244 21.105 19.8178 21.1106 19.8113C21.1439 19.7728 21.1767 19.7339 21.2091 19.695C21.2587 19.6359 21.308 19.5764 21.3563 19.5164C21.3764 19.4911 21.3966 19.4658 21.4167 19.4405C21.4453 19.4044 21.4734 19.3688 21.5016 19.3322C21.5297 19.2961 21.5578 19.2595 21.5855 19.2225C21.6319 19.1616 21.6773 19.1002 21.7219 19.0387C21.7448 19.0069 21.7678 18.9755 21.7903 18.9436C21.7922 18.9417 21.7936 18.9394 21.7955 18.9366C21.8447 18.8677 21.8934 18.7973 21.9412 18.727C21.9727 18.6816 22.0031 18.6356 22.0331 18.5897C22.0345 18.5878 22.0359 18.5859 22.0373 18.5836C22.0387 18.5813 22.0406 18.5789 22.0416 18.5766C22.0608 18.548 22.0795 18.5198 22.0978 18.4908C22.1044 18.4805 22.1114 18.4702 22.118 18.4594C22.155 18.4012 22.192 18.3427 22.2286 18.2836C22.2591 18.2339 22.2891 18.1842 22.3191 18.1341C22.3308 18.1144 22.3425 18.0942 22.3542 18.0741C22.372 18.0441 22.3898 18.0141 22.4072 17.9841C22.4958 17.8312 22.5802 17.6766 22.6613 17.5205C22.688 17.4689 22.7142 17.4173 22.74 17.3653C22.7803 17.2852 22.8197 17.205 22.8577 17.1239C22.8886 17.0578 22.9195 16.9917 22.9495 16.9252C22.9659 16.8891 22.9814 16.8534 22.9973 16.8173C23.0166 16.7742 23.0348 16.7306 23.0531 16.6875C23.1356 16.4948 23.212 16.2994 23.2833 16.1025C23.2959 16.0688 23.3081 16.0345 23.3198 16.0003C23.3658 15.8714 23.4089 15.7411 23.4497 15.6103C23.4638 15.5667 23.4769 15.5231 23.49 15.4795C23.5027 15.4383 23.5148 15.397 23.527 15.3558C23.5434 15.2995 23.5594 15.2428 23.5748 15.1861C23.5772 15.1777 23.5795 15.1692 23.5814 15.1608C23.5941 15.1148 23.6063 15.0689 23.618 15.0225C23.6213 15.0108 23.6245 14.9991 23.6269 14.9873C23.6367 14.9498 23.6466 14.9119 23.6555 14.8739C23.6616 14.8491 23.6677 14.8237 23.6737 14.7989C23.7272 14.5739 23.7745 14.3466 23.8144 14.1178C23.8205 14.0831 23.827 14.048 23.8327 14.0128C23.8378 13.9833 23.8425 13.9542 23.8472 13.9247C23.8552 13.8764 23.8627 13.8277 23.8697 13.7789C23.8772 13.7306 23.8838 13.6819 23.8903 13.6331C23.9002 13.5619 23.9091 13.4911 23.917 13.4198C23.9217 13.3809 23.9259 13.3416 23.9302 13.3022C23.9358 13.2516 23.9409 13.2005 23.9456 13.1494C23.9484 13.1236 23.9508 13.0978 23.9527 13.0725C23.955 13.0472 23.9569 13.0214 23.9592 12.9956C23.963 12.9502 23.9662 12.9047 23.9695 12.8592C23.9714 12.8395 23.9728 12.8194 23.9738 12.7997C23.9761 12.7622 23.9784 12.7252 23.9803 12.6877C23.9836 12.6305 23.9864 12.5733 23.9888 12.5161C23.9939 12.4017 23.9972 12.2873 23.9986 12.1725C23.9995 12.1148 24 12.0577 24 12V11.9873C24 11.7994 23.9953 11.6123 23.9864 11.4258Z" fill="#F1F1F1"/>
<path d="M24 12C24 12.0577 23.9995 12.1148 23.9986 12.1725C23.9972 12.2873 23.9939 12.4017 23.9888 12.5161C23.9864 12.5733 23.9836 12.6305 23.9803 12.6877C23.9784 12.7252 23.9761 12.7622 23.9738 12.7997C23.9728 12.8194 23.9714 12.8395 23.9695 12.8592C23.9663 12.9047 23.963 12.9502 23.9592 12.9956C23.9569 13.0214 23.955 13.0472 23.9527 13.0725C23.9508 13.0978 23.9484 13.1236 23.9456 13.1494C23.9409 13.2005 23.9358 13.2516 23.9302 13.3022C23.9259 13.3416 23.9217 13.3809 23.917 13.4198C23.9091 13.4911 23.9002 13.5619 23.8903 13.6331C23.8837 13.6819 23.8772 13.7306 23.8697 13.7789C23.8627 13.8277 23.8552 13.8764 23.8472 13.9247C23.8425 13.9542 23.8378 13.9833 23.8327 14.0128C23.827 14.048 23.8205 14.0831 23.8144 14.1178C23.7745 14.3466 23.7272 14.5739 23.6737 14.7989C23.6677 14.8237 23.6616 14.8491 23.6555 14.8739C23.6466 14.9119 23.6367 14.9498 23.6269 14.9873C23.6245 14.9991 23.6213 15.0108 23.618 15.0225C23.6063 15.0689 23.5941 15.1148 23.5814 15.1608C23.5795 15.1692 23.5772 15.1777 23.5748 15.1861C23.5594 15.2428 23.5434 15.2995 23.527 15.3558C23.5148 15.397 23.5027 15.4383 23.49 15.4795C23.4769 15.5231 23.4638 15.5667 23.4497 15.6103C23.4089 15.7411 23.3658 15.8714 23.3198 16.0003C23.3081 16.0345 23.2959 16.0688 23.2833 16.1025C23.212 16.2994 23.1356 16.4948 23.0531 16.6875C23.0353 16.7311 23.0166 16.7742 22.9973 16.8173C22.9814 16.8534 22.9659 16.8891 22.9495 16.9252C22.9195 16.9917 22.8886 17.0578 22.8577 17.1239C22.8197 17.205 22.7803 17.2852 22.74 17.3653C22.7142 17.4173 22.688 17.4689 22.6613 17.5205C22.5802 17.6766 22.4958 17.8312 22.4072 17.9841C22.3781 18.0342 22.3486 18.0844 22.3191 18.1341C22.2891 18.1842 22.2591 18.2339 22.2286 18.2836C22.192 18.3427 22.155 18.4012 22.118 18.4594C22.1114 18.4702 22.1044 18.4805 22.0978 18.4908C22.0795 18.5198 22.0608 18.548 22.0416 18.5766C22.0406 18.5789 22.0388 18.5813 22.0373 18.5836C22.0359 18.5859 22.0345 18.5878 22.0331 18.5897C22.0031 18.6356 21.9727 18.6816 21.9412 18.727C21.8934 18.7973 21.8447 18.8677 21.7955 18.9366C21.7936 18.9394 21.7922 18.9417 21.7903 18.9436C21.7678 18.9755 21.7448 19.0069 21.7219 19.0387C21.6773 19.1002 21.6319 19.1616 21.5855 19.2225C21.5578 19.2595 21.5297 19.2961 21.5016 19.3322C21.4734 19.3688 21.4453 19.4044 21.4167 19.4405C21.3966 19.4658 21.3764 19.4911 21.3563 19.5164C21.308 19.5764 21.2587 19.6359 21.2091 19.695C21.1767 19.7339 21.1439 19.7728 21.1106 19.8113C21.105 19.8178 21.0994 19.8244 21.0938 19.8309C21.0384 19.8952 20.9822 19.9584 20.9255 20.0217C20.8655 20.0878 20.8055 20.1534 20.7436 20.2186C20.7122 20.2523 20.6803 20.2861 20.648 20.3194C20.5945 20.3752 20.5402 20.4305 20.4853 20.4853C20.2505 20.7202 20.0077 20.9442 19.7573 21.1566C19.7198 21.1884 19.6823 21.2198 19.6444 21.2512C19.6125 21.278 19.5802 21.3047 19.5473 21.3309C19.5084 21.3628 19.4691 21.3942 19.4297 21.4252L19.3509 21.487C19.2853 21.5386 19.2192 21.5887 19.1522 21.6384C19.0852 21.6881 19.0181 21.7373 18.9502 21.7856C18.8419 21.8634 18.7322 21.9389 18.6216 22.012C18.5798 22.0397 18.5381 22.0673 18.4959 22.0945C18.39 22.163 18.2831 22.23 18.1748 22.2947C18.1275 22.3233 18.0802 22.3514 18.0323 22.3795C17.917 22.4466 17.8008 22.5122 17.6827 22.575C17.6428 22.5966 17.6025 22.6181 17.5622 22.6392C17.5102 22.6664 17.4581 22.6931 17.4061 22.7194C17.295 22.7761 17.183 22.8305 17.07 22.883C17.0147 22.9088 16.9594 22.9341 16.9036 22.9594C16.9017 22.9603 16.8998 22.9613 16.898 22.9617C16.8417 22.987 16.7855 23.0114 16.7292 23.0358C16.7259 23.0372 16.7227 23.0386 16.7198 23.0395C16.6734 23.0592 16.627 23.0789 16.5802 23.0981C16.5337 23.1173 16.4869 23.1361 16.44 23.1548C16.3931 23.1736 16.3458 23.1919 16.2989 23.2102C16.2516 23.2284 16.2047 23.2458 16.1573 23.2631C16.11 23.2809 16.0622 23.2978 16.0148 23.3147C15.9909 23.3236 15.967 23.332 15.9431 23.34C15.9192 23.3484 15.8953 23.3564 15.8714 23.3644C15.8236 23.3808 15.7758 23.3967 15.728 23.4122C15.6844 23.4267 15.6408 23.4408 15.5967 23.4544C15.5306 23.475 15.4636 23.4952 15.397 23.5148C15.3623 23.5252 15.3272 23.535 15.2925 23.5448C15.2531 23.5566 15.2133 23.5673 15.1739 23.5781C15.173 23.5781 15.1725 23.5786 15.1716 23.5786C15.1388 23.5875 15.1064 23.5964 15.0736 23.6048C15.0488 23.6114 15.0239 23.618 14.9991 23.6241C14.9573 23.6348 14.9156 23.6456 14.8734 23.6555C14.7506 23.6859 14.6273 23.7141 14.5031 23.7398C14.4637 23.7483 14.4248 23.7563 14.385 23.7642C14.3648 23.7684 14.3442 23.7722 14.3236 23.7759C14.318 23.7778 14.3123 23.7787 14.3067 23.7792C14.2809 23.7848 14.2552 23.7895 14.2289 23.7942C14.2191 23.7966 14.2092 23.7984 14.1994 23.7998C14.1731 23.805 14.1464 23.8097 14.1197 23.8144C14.115 23.8153 14.1103 23.8162 14.1056 23.8167C14.0798 23.8214 14.0536 23.8261 14.0278 23.8303C13.9936 23.8364 13.9594 23.842 13.9247 23.8472C13.8792 23.8547 13.8333 23.8617 13.7873 23.8683C13.7663 23.8716 13.7452 23.8748 13.7241 23.8777C13.6936 23.8823 13.6636 23.8866 13.6331 23.8903C13.5886 23.8964 13.5445 23.9025 13.5 23.9077C13.4494 23.9137 13.3983 23.9198 13.3472 23.9255C13.2956 23.9316 13.2436 23.9367 13.192 23.9419C13.0936 23.9513 12.9947 23.9597 12.8958 23.9672C12.8419 23.9714 12.7875 23.9747 12.7331 23.978C12.7256 23.9784 12.7186 23.9789 12.7116 23.9789C12.6581 23.9822 12.6042 23.985 12.5503 23.9873C12.5006 23.9897 12.4509 23.9916 12.4012 23.993C12.3989 23.9934 12.3961 23.9934 12.3937 23.9934C12.3792 23.9944 12.3647 23.9944 12.3502 23.9948C12.3464 23.9953 12.3427 23.9953 12.3389 23.9948C12.3005 23.9963 12.2616 23.9972 12.2227 23.9977C12.1486 23.9995 12.0745 24 12 24V0C12.0581 0 12.1162 0.00046875 12.1739 0.00140625C12.3028 0.0028125 12.4308 0.00703125 12.5588 0.013125C12.5831 0.0140625 12.607 0.015 12.6309 0.0164062C12.6548 0.0173438 12.6792 0.01875 12.7031 0.020625C12.8044 0.0257812 12.9056 0.0328125 13.0064 0.0417188C13.0458 0.0445312 13.0852 0.0478125 13.1241 0.0520312C13.1245 0.0515625 13.125 0.0515625 13.1259 0.0520312C13.238 0.0623438 13.3495 0.0740625 13.4611 0.0876563C13.4963 0.091875 13.5314 0.0960938 13.5661 0.100781C13.8234 0.134062 14.0784 0.175312 14.3316 0.225469C14.3564 0.230156 14.3808 0.234844 14.4056 0.24C14.4384 0.246562 14.4708 0.253125 14.5031 0.260156C14.55 0.27 14.5964 0.279844 14.6428 0.290156C14.6775 0.298125 14.7117 0.305625 14.7459 0.314062C14.7872 0.323437 14.8275 0.333281 14.8683 0.343125C14.9044 0.352031 14.9405 0.360938 14.9761 0.369844C15.2452 0.438281 15.5114 0.515625 15.7744 0.602812C15.8152 0.616406 15.8559 0.63 15.8967 0.644063C15.9591 0.665156 16.0209 0.686719 16.0828 0.709219C16.118 0.721875 16.1527 0.734531 16.1873 0.747656C16.2328 0.764531 16.2783 0.781875 16.3237 0.799219C16.3692 0.816562 16.4147 0.834375 16.4597 0.852656C16.6392 0.924375 16.8173 1.00078 16.9936 1.08141C17.0259 1.09594 17.0583 1.11094 17.0906 1.12641C17.123 1.14141 17.1548 1.15688 17.1872 1.17234C17.2195 1.18781 17.2514 1.20328 17.2833 1.21922C17.3156 1.23469 17.3475 1.25063 17.3794 1.26703C17.5139 1.33406 17.6466 1.40391 17.7778 1.47656C17.8013 1.48922 17.8242 1.50188 17.8472 1.515C17.8978 1.54313 17.9475 1.57125 17.9972 1.60031C18.0422 1.62609 18.0867 1.65234 18.1312 1.67906C18.1823 1.70953 18.233 1.74 18.2836 1.77141C18.2953 1.77844 18.3075 1.78594 18.3187 1.79344C18.3628 1.82062 18.4069 1.84875 18.4509 1.87688C18.4997 1.90781 18.548 1.93922 18.5963 1.97109C18.6806 2.02688 18.7641 2.08313 18.8466 2.14125C18.892 2.17266 18.9366 2.20406 18.9811 2.23641C19.0087 2.25609 19.0355 2.27578 19.0627 2.295C19.0763 2.30531 19.0898 2.31516 19.1034 2.325C19.1311 2.34516 19.1583 2.36578 19.1855 2.38641C19.208 2.40328 19.2305 2.42016 19.253 2.4375C19.2881 2.46375 19.3228 2.49094 19.3575 2.51766C19.3903 2.54344 19.4231 2.56922 19.4555 2.595C19.4953 2.62641 19.5347 2.65828 19.5741 2.69063C19.6134 2.72297 19.6528 2.75531 19.6917 2.78813C19.725 2.81578 19.7583 2.84344 19.7906 2.87203C19.8413 2.91469 19.8909 2.95828 19.9406 3.00234C19.987 3.04359 20.0334 3.08484 20.0794 3.12703C20.1211 3.165 20.1628 3.20344 20.2041 3.24234C20.2387 3.27469 20.273 3.30703 20.3067 3.33984C20.3292 3.36141 20.3517 3.38297 20.3738 3.405C20.4113 3.44109 20.4483 3.47766 20.4853 3.51469C20.5369 3.56625 20.588 3.61828 20.6381 3.67078C20.6705 3.70359 20.7019 3.73688 20.7333 3.77016L20.7375 3.77437C20.76 3.79828 20.782 3.82219 20.8041 3.84562C20.9602 4.01391 21.1106 4.18547 21.2559 4.36125C21.2723 4.38094 21.2883 4.40063 21.3042 4.41984C21.367 4.49672 21.4289 4.57406 21.4894 4.65188C21.5391 4.71562 21.5883 4.77984 21.6366 4.845C21.6497 4.86234 21.6628 4.87969 21.6755 4.8975C21.7055 4.93781 21.735 4.97859 21.7641 5.01937C21.7992 5.06813 21.8339 5.11688 21.8681 5.16656C21.9202 5.24109 21.9703 5.31563 22.0205 5.39109C22.118 5.53828 22.2122 5.68734 22.3027 5.83828C22.3284 5.88094 22.3537 5.92406 22.3795 5.96766C22.4081 6.01641 22.4363 6.06563 22.4639 6.11531C22.4784 6.14016 22.492 6.165 22.5056 6.19031C22.5591 6.28594 22.6111 6.3825 22.6613 6.47953C22.6833 6.52219 22.7053 6.56437 22.7264 6.60703C22.763 6.67922 22.7991 6.75187 22.8337 6.82547C22.8492 6.85734 22.8642 6.88969 22.8792 6.92156C22.8844 6.93281 22.89 6.94359 22.8947 6.95484C22.9088 6.98531 22.9228 7.01531 22.9364 7.04578C22.9537 7.08375 22.9706 7.12172 22.9875 7.16016C23.0067 7.20281 23.0255 7.24594 23.0438 7.28906C23.0602 7.32797 23.0766 7.36641 23.0925 7.40531C23.1113 7.45031 23.1295 7.49531 23.1473 7.54031C23.2003 7.67156 23.2505 7.80422 23.2978 7.93734C23.3147 7.98375 23.3311 8.03016 23.347 8.07703C23.4605 8.40563 23.5594 8.73938 23.6437 9.07781C23.6559 9.12844 23.6681 9.17906 23.6803 9.22969C23.7014 9.31828 23.7211 9.40734 23.7398 9.49688C23.7502 9.54469 23.76 9.5925 23.7694 9.64078C23.7792 9.68859 23.7881 9.73687 23.797 9.78516C23.8055 9.82875 23.8134 9.87281 23.8209 9.91687C23.8387 10.0177 23.8547 10.1194 23.8697 10.2211C23.8772 10.2694 23.8837 10.3181 23.8903 10.3669C23.8973 10.4156 23.9034 10.4648 23.9095 10.5136C23.9259 10.6495 23.9405 10.7859 23.9527 10.9228C23.963 11.0423 23.9719 11.1619 23.9789 11.2814C23.9798 11.2997 23.9812 11.3175 23.9817 11.3353C23.9836 11.3653 23.985 11.3958 23.9864 11.4258C23.9953 11.6166 24 11.8078 24 12Z" fill="#E1E1E4"/>
<path d="M23.9864 11.4258C23.985 11.3958 23.9836 11.3653 23.9817 11.3353C23.9812 11.3175 23.9798 11.2997 23.9789 11.2814C23.9719 11.1619 23.963 11.0423 23.9527 10.9228C23.9405 10.7859 23.9259 10.6495 23.9095 10.5136C23.9034 10.4648 23.8973 10.4156 23.8903 10.3669C23.8838 10.3181 23.8772 10.2694 23.8697 10.2211C23.8547 10.1194 23.8387 10.0177 23.8209 9.91687C23.8134 9.87281 23.8055 9.82875 23.797 9.78516C23.7881 9.73687 23.7792 9.68859 23.7694 9.64078C23.76 9.5925 23.7502 9.54469 23.7398 9.49688C23.7211 9.40734 23.7014 9.31828 23.6803 9.22969C23.6681 9.17906 23.6559 9.12844 23.6437 9.07781C23.5594 8.73938 23.4605 8.40563 23.347 8.07703C23.3311 8.03016 23.3147 7.98375 23.2978 7.93734C23.2505 7.80422 23.2003 7.67156 23.1473 7.54031C23.1295 7.49531 23.1112 7.45031 23.0925 7.40531C23.0766 7.36641 23.0602 7.32797 23.0438 7.28906C23.0255 7.24594 23.0067 7.20281 22.9875 7.16016C22.9706 7.12172 22.9538 7.08375 22.9364 7.04578C22.9228 7.01531 22.9088 6.98531 22.8947 6.95484C22.89 6.94359 22.8844 6.93281 22.8792 6.92156C22.8642 6.88969 22.8492 6.85734 22.8337 6.82547C22.7991 6.75187 22.763 6.67922 22.7264 6.60703C22.7053 6.56437 22.6833 6.52219 22.6613 6.47953C22.6111 6.3825 22.5591 6.28594 22.5056 6.19031C22.492 6.165 22.4784 6.14016 22.4639 6.11531C22.4363 6.06563 22.4081 6.01641 22.3795 5.96766C22.3538 5.92406 22.3284 5.88094 22.3027 5.83828C22.2122 5.68734 22.118 5.53828 22.0205 5.39109L18.9169 7.18641C18.3436 6.36469 17.6273 5.64937 16.8047 5.07703L18.5963 1.97109C18.548 1.93922 18.4997 1.90781 18.4509 1.87688C18.4069 1.84875 18.3628 1.82062 18.3187 1.79344C18.3075 1.78594 18.2953 1.77844 18.2836 1.77141C18.233 1.74 18.1823 1.70953 18.1312 1.67906C18.0867 1.65234 18.0422 1.62609 17.9972 1.60031C17.9475 1.57125 17.8978 1.54313 17.8472 1.515C17.8242 1.50188 17.8013 1.48922 17.7778 1.47656C17.6466 1.40391 17.5139 1.33406 17.3794 1.26703C17.3475 1.25063 17.3156 1.23469 17.2833 1.21922C17.2514 1.20328 17.2195 1.18781 17.1872 1.17234C17.1548 1.15688 17.123 1.14141 17.0906 1.12641C17.0583 1.11094 17.0259 1.09594 16.9936 1.08141C16.8173 1.00078 16.6392 0.924375 16.4597 0.852656C16.4147 0.834375 16.3692 0.816562 16.3237 0.799219C16.2783 0.781875 16.2328 0.764531 16.1873 0.747656C16.1527 0.734531 16.118 0.721875 16.0828 0.709219C16.0209 0.686719 15.9591 0.665156 15.8967 0.644063C15.8559 0.63 15.8152 0.616406 15.7744 0.602812C15.5114 0.515625 15.2452 0.438281 14.9761 0.369844C14.9405 0.360938 14.9044 0.352031 14.8683 0.343125C14.8275 0.333281 14.7872 0.323437 14.7459 0.314062C14.7117 0.305625 14.6775 0.298125 14.6428 0.290156C14.5964 0.279844 14.55 0.27 14.5031 0.260156C14.4708 0.253125 14.4384 0.246562 14.4056 0.24C14.3808 0.234844 14.3564 0.230156 14.3316 0.225469C14.0784 0.175312 13.8234 0.134062 13.5661 0.100781C13.5314 0.0960938 13.4963 0.091875 13.4611 0.0876563C13.3495 0.0740625 13.238 0.0623438 13.1259 0.0520312C13.125 0.0515625 13.1245 0.0515625 13.1241 0.0520312C13.0852 0.0478125 13.0458 0.0445312 13.0064 0.0417188C12.9056 0.0328125 12.8044 0.0257812 12.7031 0.020625C12.6792 0.01875 12.6548 0.0173438 12.6309 0.0164062C12.607 0.015 12.5831 0.0140625 12.5588 0.013125C12.487 0.00984375 12.4153 0.00703125 12.3431 0.00515625C12.315 0.00421875 12.2869 0.00328125 12.2587 0.0028125C12.2306 0.00234375 12.202 0.001875 12.1739 0.00140625C12.1163 0.00046875 12.0581 0 12 0C11.7647 0 11.5303 0.0065625 11.2969 0.020625V3.59906C10.2581 3.68531 9.27188 3.96047 8.37328 4.39031L6.56672 1.29422C6.52547 1.31531 6.48469 1.33641 6.44391 1.35797C6.32109 1.42219 6.19969 1.48969 6.07875 1.55813L6.07828 1.55719C5.83172 1.69734 5.58984 1.84641 5.35312 2.00437C5.23781 2.08172 5.12391 2.16094 5.01094 2.24203C4.48359 2.62125 3.98297 3.04641 3.51469 3.51469C3.02719 4.00219 2.58656 4.52484 2.19563 5.07609C2.10984 5.19656 2.02688 5.31844 1.94578 5.44172C1.68797 5.83547 1.45453 6.24234 1.24641 6.66141L4.35891 8.44125C3.94266 9.33094 3.67734 10.3041 3.59625 11.3287L0.0178125 11.3423C0.00609375 11.5608 0 11.7797 0 12C0 12.2508 0.0075 12.5002 0.0229688 12.7486C0.0304688 12.8761 0.0403125 13.0031 0.0525 13.1302C0.177656 14.483 0.528281 15.788 1.08516 17.002C1.14984 17.1427 1.21687 17.2819 1.28719 17.4197C1.49859 17.8369 1.73531 18.2423 1.99594 18.6342L5.09531 16.8309C5.67094 17.6512 6.38859 18.3647 7.21266 18.9352L5.42906 22.0453C5.82234 22.3041 6.22922 22.5384 6.64828 22.747C6.76641 22.8061 6.88547 22.8633 7.00547 22.9181C8.22516 23.4769 9.53719 23.827 10.8966 23.9498C11.0395 23.9634 11.183 23.9738 11.3269 23.9813C11.55 23.9939 11.7745 24 12 24C12.0745 24 12.1486 23.9995 12.2227 23.9977C12.2616 23.9972 12.3005 23.9963 12.3389 23.9948C12.3427 23.9953 12.3464 23.9953 12.3502 23.9948C12.3647 23.9944 12.3792 23.9944 12.3937 23.9934C12.3961 23.9934 12.3989 23.9934 12.4012 23.993C12.4509 23.9916 12.5006 23.9897 12.5503 23.9873C12.6042 23.985 12.6581 23.9822 12.7116 23.9789C12.7186 23.9789 12.7256 23.9784 12.7331 23.978L12.7242 20.3991C13.748 20.3114 14.7202 20.0405 15.607 19.6186L17.4061 22.7194C17.4581 22.6931 17.5102 22.6664 17.5622 22.6392C17.6025 22.6181 17.6428 22.5966 17.6827 22.575C17.8008 22.5122 17.917 22.4466 18.0323 22.3795C18.0802 22.3514 18.1275 22.3233 18.1748 22.2947C18.2831 22.23 18.39 22.163 18.4959 22.0945C18.5381 22.0673 18.5798 22.0397 18.6216 22.012C18.7322 21.9389 18.8419 21.8634 18.9502 21.7856C19.0181 21.7373 19.0852 21.6881 19.1522 21.6384C19.2192 21.5887 19.2853 21.5386 19.3509 21.487L19.4297 21.4252C19.4691 21.3942 19.5084 21.3628 19.5473 21.3309C19.5802 21.3047 19.6125 21.278 19.6444 21.2512C19.6823 21.2198 19.7198 21.1884 19.7573 21.1566C20.0077 20.9442 20.2505 20.7202 20.4853 20.4853C20.5402 20.4305 20.5945 20.3752 20.648 20.3194C20.6803 20.2861 20.7122 20.2523 20.7436 20.2186C20.8055 20.1534 20.8655 20.0878 20.9255 20.0217C20.9822 19.9584 21.0384 19.8952 21.0938 19.8309C21.0994 19.8244 21.105 19.8178 21.1106 19.8113C21.1439 19.7728 21.1767 19.7339 21.2091 19.695C21.2587 19.6359 21.308 19.5764 21.3563 19.5164C21.3764 19.4911 21.3966 19.4658 21.4167 19.4405C21.4453 19.4044 21.4734 19.3688 21.5016 19.3322C21.5297 19.2961 21.5578 19.2595 21.5855 19.2225C21.6319 19.1616 21.6773 19.1002 21.7219 19.0387C21.7448 19.0069 21.7678 18.9755 21.7903 18.9436C21.7922 18.9417 21.7936 18.9394 21.7955 18.9366C21.8447 18.8677 21.8934 18.7973 21.9412 18.727C21.9727 18.6816 22.0031 18.6356 22.0331 18.5897C22.0345 18.5878 22.0359 18.5859 22.0373 18.5836C22.0387 18.5813 22.0406 18.5789 22.0416 18.5766C22.0608 18.548 22.0795 18.5198 22.0978 18.4908C22.1044 18.4805 22.1114 18.4702 22.118 18.4594C22.155 18.4012 22.192 18.3427 22.2286 18.2836C22.2591 18.2339 22.2891 18.1842 22.3191 18.1341C22.3486 18.0844 22.3781 18.0342 22.4072 17.9841C22.4958 17.8312 22.5802 17.6766 22.6613 17.5205C22.688 17.4689 22.7142 17.4173 22.74 17.3653L19.6322 15.578C20.0503 14.6897 20.318 13.7166 20.4019 12.6923L23.9803 12.6877C23.9836 12.6305 23.9864 12.5733 23.9888 12.5161C23.9939 12.4017 23.9972 12.2873 23.9986 12.1725C23.9995 12.1148 24 12.0577 24 12C24 11.8078 23.9953 11.6166 23.9864 11.4258ZM12 19.0242C8.12672 19.0242 4.97578 15.8733 4.97578 12C4.97578 8.12672 8.12672 4.97578 12 4.97578C15.8733 4.97578 19.0242 8.12672 19.0242 12C19.0242 15.8733 15.8733 19.0242 12 19.0242Z" fill="#E70020"/>
<path d="M16.9671 16.9671C15.6402 18.2934 13.8762 19.0242 12 19.0242V4.97577C13.8762 4.97577 15.6402 5.70664 16.9671 7.03288C18.2934 8.35972 19.0242 10.1238 19.0242 12C19.0242 13.8762 18.2934 15.6403 16.9671 16.9671Z" fill="#E1E1E4"/>
<path d="M24 12C24 12.0577 23.9995 12.1148 23.9986 12.1725C23.9972 12.2873 23.9939 12.4017 23.9888 12.5161C23.9864 12.5733 23.9836 12.6305 23.9803 12.6877L20.4019 12.6923C20.318 13.7166 20.0503 14.6897 19.6322 15.578L22.74 17.3653C22.7142 17.4173 22.688 17.4689 22.6613 17.5205C22.5802 17.6766 22.4958 17.8312 22.4072 17.9841C22.3781 18.0342 22.3486 18.0844 22.3191 18.1341C22.2891 18.1842 22.2591 18.2339 22.2286 18.2836C22.192 18.3427 22.155 18.4012 22.118 18.4594C22.1114 18.4702 22.1044 18.4805 22.0978 18.4908C22.0795 18.5198 22.0608 18.548 22.0416 18.5766C22.0406 18.5789 22.0388 18.5813 22.0373 18.5836C22.0359 18.5859 22.0345 18.5878 22.0331 18.5897C22.0031 18.6356 21.9727 18.6816 21.9412 18.727C21.8934 18.7973 21.8447 18.8677 21.7955 18.9366C21.7936 18.9394 21.7922 18.9417 21.7903 18.9436C21.7678 18.9755 21.7448 19.0069 21.7219 19.0387C21.6773 19.1002 21.6319 19.1616 21.5855 19.2225C21.5578 19.2595 21.5297 19.2961 21.5016 19.3322C21.4734 19.3688 21.4453 19.4044 21.4167 19.4405C21.3966 19.4658 21.3764 19.4911 21.3563 19.5164C21.308 19.5764 21.2587 19.6359 21.2091 19.695C21.1767 19.7339 21.1439 19.7728 21.1106 19.8113C21.105 19.8178 21.0994 19.8244 21.0938 19.8309C21.0384 19.8952 20.9822 19.9584 20.9255 20.0217C20.8655 20.0878 20.8055 20.1534 20.7436 20.2186C20.7122 20.2523 20.6803 20.2861 20.648 20.3194C20.5945 20.3752 20.5402 20.4305 20.4853 20.4853C20.2505 20.7202 20.0077 20.9442 19.7573 21.1566C19.7198 21.1884 19.6823 21.2198 19.6444 21.2512C19.6125 21.278 19.5802 21.3047 19.5473 21.3309C19.5084 21.3628 19.4691 21.3942 19.4297 21.4252L19.3509 21.487C19.2853 21.5386 19.2192 21.5887 19.1522 21.6384C19.0852 21.6881 19.0181 21.7373 18.9502 21.7856C18.8419 21.8634 18.7322 21.9389 18.6216 22.012C18.5798 22.0397 18.5381 22.0673 18.4959 22.0945C18.39 22.163 18.2831 22.23 18.1748 22.2947C18.1275 22.3233 18.0802 22.3514 18.0323 22.3795C17.917 22.4466 17.8008 22.5122 17.6827 22.575C17.6428 22.5966 17.6025 22.6181 17.5622 22.6392C17.5102 22.6664 17.4581 22.6931 17.4061 22.7194L15.607 19.6186C14.7202 20.0405 13.748 20.3114 12.7242 20.3991L12.7331 23.978C12.7256 23.9784 12.7186 23.9789 12.7116 23.9789C12.6581 23.9822 12.6042 23.985 12.5503 23.9873C12.5006 23.9897 12.4509 23.9916 12.4012 23.993C12.3989 23.9934 12.3961 23.9934 12.3937 23.9934C12.3792 23.9944 12.3647 23.9944 12.3502 23.9948C12.3464 23.9953 12.3427 23.9953 12.3389 23.9948C12.3005 23.9963 12.2616 23.9972 12.2227 23.9977C12.1486 23.9995 12.0745 24 12 24V19.0242C15.8733 19.0242 19.0242 15.8733 19.0242 12C19.0242 8.12672 15.8733 4.97578 12 4.97578V0C12.0581 0 12.1162 0.00046875 12.1739 0.00140625C12.202 0.001875 12.2306 0.00234375 12.2587 0.0028125C12.2869 0.00328125 12.315 0.00421875 12.3431 0.00515625C12.4153 0.00703125 12.487 0.00984375 12.5588 0.013125C12.5831 0.0140625 12.607 0.015 12.6309 0.0164062C12.6548 0.0173438 12.6792 0.01875 12.7031 0.020625C12.8044 0.0257812 12.9056 0.0328125 13.0064 0.0417188C13.0458 0.0445312 13.0852 0.0478125 13.1241 0.0520312C13.1245 0.0515625 13.125 0.0515625 13.1259 0.0520312C13.238 0.0623438 13.3495 0.0740625 13.4611 0.0876563C13.4963 0.091875 13.5314 0.0960938 13.5661 0.100781C13.8234 0.134062 14.0784 0.175312 14.3316 0.225469C14.3564 0.230156 14.3808 0.234844 14.4056 0.24C14.4384 0.246562 14.4708 0.253125 14.5031 0.260156C14.55 0.27 14.5964 0.279844 14.6428 0.290156C14.6775 0.298125 14.7117 0.305625 14.7459 0.314062C14.7872 0.323437 14.8275 0.333281 14.8683 0.343125C14.9044 0.352031 14.9405 0.360938 14.9761 0.369844C15.2452 0.438281 15.5114 0.515625 15.7744 0.602812C15.8152 0.616406 15.8559 0.63 15.8967 0.644063C15.9591 0.665156 16.0209 0.686719 16.0828 0.709219C16.118 0.721875 16.1527 0.734531 16.1873 0.747656C16.2328 0.764531 16.2783 0.781875 16.3237 0.799219C16.3692 0.816562 16.4147 0.834375 16.4597 0.852656C16.6392 0.924375 16.8173 1.00078 16.9936 1.08141C17.0259 1.09594 17.0583 1.11094 17.0906 1.12641C17.123 1.14141 17.1548 1.15688 17.1872 1.17234C17.2195 1.18781 17.2514 1.20328 17.2833 1.21922C17.3156 1.23469 17.3475 1.25063 17.3794 1.26703C17.5139 1.33406 17.6466 1.40391 17.7778 1.47656C17.8013 1.48922 17.8242 1.50188 17.8472 1.515C17.8978 1.54313 17.9475 1.57125 17.9972 1.60031C18.0422 1.62609 18.0867 1.65234 18.1312 1.67906C18.1823 1.70953 18.233 1.74 18.2836 1.77141C18.2953 1.77844 18.3075 1.78594 18.3187 1.79344C18.3628 1.82062 18.4069 1.84875 18.4509 1.87688C18.4997 1.90781 18.548 1.93922 18.5963 1.97109L16.8047 5.07703C17.6273 5.64937 18.3436 6.36469 18.9169 7.18641L22.0205 5.39109C22.118 5.53828 22.2122 5.68734 22.3027 5.83828C22.3284 5.88094 22.3537 5.92406 22.3795 5.96766C22.4081 6.01641 22.4363 6.06563 22.4639 6.11531C22.4784 6.14016 22.492 6.165 22.5056 6.19031C22.5591 6.28594 22.6111 6.3825 22.6613 6.47953C22.6833 6.52219 22.7053 6.56437 22.7264 6.60703C22.763 6.67922 22.7991 6.75187 22.8337 6.82547C22.8492 6.85734 22.8642 6.88969 22.8792 6.92156C22.8844 6.93281 22.89 6.94359 22.8947 6.95484C22.9088 6.98531 22.9228 7.01531 22.9364 7.04578C22.9537 7.08375 22.9706 7.12172 22.9875 7.16016C23.0067 7.20281 23.0255 7.24594 23.0438 7.28906C23.0602 7.32797 23.0766 7.36641 23.0925 7.40531C23.1113 7.45031 23.1295 7.49531 23.1473 7.54031C23.2003 7.67156 23.2505 7.80422 23.2978 7.93734C23.3147 7.98375 23.3311 8.03016 23.347 8.07703C23.4605 8.40563 23.5594 8.73938 23.6437 9.07781C23.6559 9.12844 23.6681 9.17906 23.6803 9.22969C23.7014 9.31828 23.7211 9.40734 23.7398 9.49688C23.7502 9.54469 23.76 9.5925 23.7694 9.64078C23.7792 9.68859 23.7881 9.73687 23.797 9.78516C23.8055 9.82875 23.8134 9.87281 23.8209 9.91687C23.8387 10.0177 23.8547 10.1194 23.8697 10.2211C23.8772 10.2694 23.8837 10.3181 23.8903 10.3669C23.8973 10.4156 23.9034 10.4648 23.9095 10.5136C23.9259 10.6495 23.9405 10.7859 23.9527 10.9228C23.963 11.0423 23.9719 11.1619 23.9789 11.2814C23.9798 11.2997 23.9812 11.3175 23.9817 11.3353C23.9836 11.3653 23.985 11.3958 23.9864 11.4258C23.9953 11.6166 24 11.8078 24 12Z" fill="#990013"/>
<path d="M15.362 13.3563C14.8343 14.2181 14.0988 14.4037 13.5747 14.4076C13.3023 14.4098 13.0297 14.3621 12.7701 14.2687C12.8271 14.5042 12.9002 14.6324 12.9618 14.6756L13.0581 14.7434V15.375H10.9419V14.7433L11.0382 14.6756C11.0997 14.6324 11.1728 14.5042 11.2298 14.2687C10.9703 14.3621 10.6978 14.4097 10.4252 14.4076C9.90117 14.4037 9.16565 14.218 8.63793 13.3563C8.21259 12.6615 8.20139 11.8376 8.60709 11.0959C8.92012 10.5233 9.40518 10.067 9.87421 9.62559C9.95676 9.54806 10.0346 9.47475 10.1122 9.40036C10.4028 9.12117 10.6972 8.85211 10.9816 8.592C11.2641 8.33367 11.5563 8.06658 11.8429 7.79133L12 7.64062L12.157 7.79133C12.4436 8.06658 12.7358 8.33367 13.0183 8.592C13.3028 8.85216 13.5971 9.12117 13.8877 9.40036C13.9653 9.47475 14.0431 9.54802 14.1257 9.62559C14.5947 10.067 15.0798 10.5233 15.3928 11.0959C15.7986 11.8376 15.7874 12.6616 15.362 13.3563Z" fill="#3C3A41"/>
<path d="M15.362 13.3563C14.8343 14.2181 14.0988 14.4037 13.5747 14.4076C13.3023 14.4098 13.0297 14.3621 12.7701 14.2687C12.8271 14.5042 12.9002 14.6324 12.9618 14.6756L13.0581 14.7434V15.375H12V7.64062L12.157 7.79133C12.4436 8.06658 12.7358 8.33367 13.0183 8.592C13.3028 8.85216 13.5971 9.12117 13.8878 9.40036C13.9653 9.47475 14.0431 9.54802 14.1257 9.62559C14.5947 10.067 15.0798 10.5233 15.3928 11.0959C15.7986 11.8376 15.7874 12.6616 15.362 13.3563Z" fill="#17171A"/>
</g>
<defs>
<clipPath id="clip0_3080_1803">
<rect width="24" height="24" fill="white"/>
</clipPath>
</defs>
</svg>
