<svg width="32" height="32" viewBox="0 0 32 32" fill="none" xmlns="http://www.w3.org/2000/svg">
<g clip-path="url(#clip0_3080_1021)">
<path d="M32 0H12.2812V19.7188H32V0Z" fill="#E70020"/>
<path d="M32 0H22.1406V19.7188H32V0Z" fill="#990013"/>
<path d="M22.1406 11.8543C23.182 11.8543 24.0263 11.01 24.0263 9.96863C24.0263 8.92723 23.182 8.08301 22.1406 8.08301C21.0992 8.08301 20.255 8.92723 20.255 9.96863C20.255 11.01 21.0992 11.8543 22.1406 11.8543Z" fill="white"/>
<path d="M19.7188 12.2812H0V32H19.7188V12.2812Z" fill="#E70020"/>
<path d="M19.7188 12.2812H9.85938V32H19.7188V12.2812Z" fill="#990013"/>
<path d="M5.93189 20C6.97329 20 7.81751 19.1558 7.81751 18.1144C7.81751 17.073 6.97329 16.2288 5.93189 16.2288C4.89049 16.2288 4.04626 17.073 4.04626 18.1144C4.04626 19.1558 4.89049 20 5.93189 20Z" fill="white"/>
<path d="M13.9269 28.2498C14.9683 28.2498 15.8125 27.4055 15.8125 26.3641C15.8125 25.3227 14.9683 24.4785 13.9269 24.4785C12.8855 24.4785 12.0413 25.3227 12.0413 26.3641C12.0413 27.4055 12.8855 28.2498 13.9269 28.2498Z" fill="#E1E1E4"/>
<path d="M24.0263 9.96863C24.0263 11.0099 23.1819 11.8543 22.1406 11.8543V8.08301C23.1819 8.08301 24.0263 8.92738 24.0263 9.96863Z" fill="#E1E1E4"/>
</g>
<defs>
<clipPath id="clip0_3080_1021">
<rect width="32" height="32" fill="white"/>
</clipPath>
</defs>
</svg>
