<svg width="24" height="24" viewBox="0 0 24 24" fill="none" xmlns="http://www.w3.org/2000/svg">
<path d="M23.6998 2.13286C23.8655 2.13286 23.9994 1.99799 23.9994 1.83112C23.9994 1.66426 23.8655 1.52939 23.6998 1.52939H22.8949L23.9106 0.515837C24.028 0.398424 24.0289 0.207786 23.9125 0.0893228C23.7959 -0.0291401 23.6066 -0.0297704 23.4889 0.087429L22.4669 1.10733L22.4667 0.301871C22.4667 0.135009 22.3328 0.000133323 22.1671 0.000133323C22.0014 0.000133323 21.8675 0.135009 21.8675 0.301871V1.70557L20.9341 2.63709L20.9343 0.301871C20.9343 0.135009 20.8003 0.000133323 20.6346 0.000133323C20.4689 0.000133323 20.335 0.135009 20.335 0.301871V3.23484L19.1011 4.46617C17.0713 2.49649 14.3148 1.28132 11.2805 1.28132C5.05986 1.28132 0 6.37719 0 12.6407C0 18.9042 5.05986 24 11.2805 24C17.5012 24 22.5616 18.904 22.5616 12.6401C22.5616 9.64887 21.4056 6.92598 19.5223 4.89522L20.7585 3.66179H23.7004C23.8661 3.66179 24 3.52691 24 3.36005C24 3.19319 23.8661 3.05831 23.7004 3.05831H21.363L22.2908 2.13245L23.7004 2.13288L23.6998 2.13286ZM21.9617 12.6406C21.9617 18.5718 17.1699 23.3966 11.2803 23.3966C5.39078 23.3966 0.598916 18.5714 0.598916 12.6406C0.598916 6.70989 5.39067 1.88454 11.2803 1.88454C14.1488 1.88454 16.7547 3.03108 18.6757 4.89055L16.8671 6.69529C15.4103 5.32886 13.4586 4.49054 11.3157 4.49054C6.81956 4.49054 3.1618 8.17408 3.1618 12.7014C3.1618 17.2287 6.81978 20.9122 11.3157 20.9122C15.8116 20.9122 19.4695 17.2291 19.4695 12.7014C19.4695 10.5488 18.6416 8.58799 17.2908 7.12191L19.0968 5.31992C20.8723 7.24122 21.9618 9.81442 21.9618 12.6404L21.9617 12.6406ZM12.8862 12.6986C12.8862 13.5906 12.1657 14.3161 11.2799 14.3161C10.3944 14.3161 9.67393 13.5906 9.67393 12.6986C9.67393 11.8069 10.3944 11.0814 11.2799 11.0814C11.6164 11.0814 11.9281 11.187 12.1864 11.3655L11.0686 12.4807C10.9512 12.5981 10.9504 12.7887 11.0668 12.9072C11.1253 12.9665 11.2022 12.9964 11.2795 12.9964C11.356 12.9964 11.432 12.9672 11.4903 12.9089L12.6091 11.7924C12.7839 12.0514 12.8862 12.3631 12.8862 12.6986ZM12.6164 10.9364C12.2449 10.6502 11.7824 10.4779 11.2797 10.4779C10.0638 10.4779 9.0746 11.4742 9.0746 12.6984C9.0746 13.923 10.064 14.9192 11.2797 14.9192C12.4958 14.9192 13.4851 13.9229 13.4851 12.6984C13.4851 12.1974 13.3173 11.7362 13.0385 11.3642L13.6328 10.7712C14.0597 11.2979 14.3167 11.9697 14.3167 12.7011C14.3167 14.3874 12.9543 15.7593 11.2797 15.7593C9.60521 15.7593 8.2428 14.3874 8.2428 12.7011C8.2428 11.0149 9.60521 9.64299 11.2797 9.64299C12.0127 9.64299 12.6858 9.90579 13.2109 10.3428L12.6164 10.9364ZM13.6365 9.91844C13.0011 9.37181 12.1788 9.03977 11.2799 9.03977C9.27514 9.03977 7.64383 10.6823 7.64383 12.7012C7.64383 14.7201 9.27493 16.3627 11.2799 16.3627C13.2848 16.3627 14.9159 14.7202 14.9159 12.7012C14.9159 11.8045 14.5931 10.983 14.0594 10.3458L15.9074 8.50176C16.9083 9.6121 17.5239 11.0806 17.5239 12.6947C17.5239 16.1419 14.7385 18.947 11.315 18.947C7.89129 18.947 5.10614 16.1422 5.10614 12.6947C5.10614 9.24705 7.8915 6.44245 11.315 6.44245C12.9204 6.44245 14.3804 7.06444 15.4837 8.07508L13.6365 9.91844ZM15.9143 7.64555C14.702 6.52486 13.0868 5.83936 11.3152 5.83936C7.56151 5.83936 4.50719 8.9148 4.50719 12.6949C4.50698 16.4751 7.56129 19.5505 11.3152 19.5505C15.0689 19.5505 18.1232 16.4755 18.1232 12.6949C18.1232 10.9155 17.4462 9.2923 16.3381 8.07255L16.8651 7.54672C18.1086 8.90329 18.87 10.7143 18.87 12.7017C18.87 16.8961 15.4811 20.3092 11.3152 20.3092C7.14932 20.3092 3.76046 16.8967 3.76046 12.7017C3.76046 8.50667 7.14932 5.09413 11.3152 5.09413C13.2924 5.09413 15.0936 5.86404 16.4413 7.11999L15.9143 7.64555Z" fill="#647385"/>
</svg>
