<svg width="32" height="32" viewBox="0 0 32 32" fill="none" xmlns="http://www.w3.org/2000/svg">
<path d="M12 0C5.38339 0 0 5.38339 0 12C0 18.6166 5.38339 24 12 24C18.6166 24 24 18.6166 24 12C24 5.38286 18.6171 0 12 0ZM21.0107 5.02923L19.2041 6.34152C18.7379 5.74907 18.2007 5.21566 17.6048 4.75361L18.9173 2.94723C19.7018 3.54761 20.4053 4.24821 21.0107 5.02918V5.02923ZM22.7225 8.12989L20.5978 8.82048C20.3337 8.10921 19.9836 7.43957 19.5608 6.82371L21.3661 5.51245C21.9248 6.31623 22.3837 7.19432 22.7225 8.12989ZM23.39 11.607H21.1574C21.125 10.8403 20.9971 10.0978 20.787 9.39027L22.9112 8.69968C23.1914 9.62486 23.3555 10.5996 23.39 11.607ZM22.9619 15.1212L20.8377 14.4308C21.0335 13.7198 21.1449 12.9749 21.162 12.2069H23.3947C23.3765 13.2156 23.2268 14.192 22.9619 15.1211L22.9619 15.1212ZM21.4723 18.335L19.6643 17.0211C20.0744 16.3971 20.4101 15.7205 20.6593 15.0036L22.7825 15.6933C22.4588 16.6352 22.0175 17.5223 21.4723 18.335ZM15.9695 22.6861L15.2785 20.5591C15.99 20.2856 16.6586 19.9259 17.2724 19.4927L18.5836 21.298C17.782 21.8672 16.9051 22.337 15.9695 22.6861ZM5.68054 21.4826L6.99428 19.6745C7.62878 20.0897 8.31722 20.4279 9.04756 20.6769L8.3574 22.7999C7.40276 22.4768 6.50335 22.033 5.68049 21.4826H5.68054ZM9.62099 20.8523C10.3421 21.0464 11.098 21.1538 11.8773 21.1641V23.3967C10.8575 23.3858 9.8702 23.2397 8.93061 22.9767L9.62099 20.8523ZM12.4772 21.1546C13.2513 21.1147 14 20.9782 14.7119 20.7575L15.4019 22.8811C14.4722 23.1724 13.4915 23.3458 12.4772 23.3877V21.1546ZM11.9997 20.5672C7.27552 20.5672 3.43198 16.7239 3.43198 11.9995C3.43198 7.2754 7.27531 3.43187 11.9997 3.43187C16.7238 3.43208 20.5673 7.2754 20.5673 11.9995C20.5673 16.7237 16.724 20.5667 11.9997 20.5667V20.5672ZM1.29395 15.9195L3.42089 15.2283C3.6944 15.9527 4.05791 16.6333 4.49629 17.2575L2.6912 18.5692C2.11638 17.7566 1.64238 16.8683 1.29395 15.9195ZM0.609467 12.3932H2.84211C2.87538 13.1783 3.00763 13.9375 3.22694 14.6599L1.10273 15.3503C0.813113 14.4105 0.644411 13.4185 0.609467 12.3932ZM1.05164 8.8286L3.17585 9.51897C2.97161 10.2449 2.85484 11.0067 2.83706 11.7932H0.604415C0.623248 10.7664 0.777713 9.77279 1.05164 8.8286ZM2.58303 5.58292L4.38898 6.89521C3.96334 7.52762 3.61594 8.21649 3.35687 8.94683L1.23368 8.2571C1.56661 7.30203 2.02176 6.40363 2.58303 5.58292ZM8.18071 1.25997L8.87044 3.38317C8.14616 3.64684 7.46462 3.99988 6.83826 4.42846L5.52662 2.62337C6.34107 2.05921 7.23169 1.59833 8.18071 1.25997ZM18.4316 2.59422L17.12 4.39953C16.4981 3.97932 15.8213 3.63383 15.1039 3.37476L15.7936 1.25156C16.7353 1.58513 17.6209 2.03847 18.4316 2.59422ZM14.5326 3.19165C13.8167 2.98553 13.0659 2.86457 12.2908 2.8403V0.607655C13.3065 0.633395 14.2895 0.791598 15.2229 1.0672L14.5326 3.19165ZM11.6906 2.84051C10.9124 2.86625 10.159 2.9895 9.44125 3.19835L8.75087 1.07413C9.6865 0.795397 10.6721 0.635309 11.6906 0.607896V2.84051ZM5.04239 2.97799L6.35489 4.78437C5.75157 5.25709 5.20916 5.80346 4.74062 6.41015L2.93425 5.09765C3.54196 4.30223 4.25114 3.58967 5.04239 2.97799ZM3.0498 19.0494L4.85618 17.7369C5.33643 18.334 5.88866 18.8703 6.50162 19.3311L5.18934 21.137C4.38785 20.5381 3.66967 19.8344 3.0498 19.0494ZM19.0628 20.938L17.7506 19.1317C18.3367 18.6579 18.8642 18.1144 19.3186 17.5126L21.125 18.8251C20.5319 19.6157 19.8372 20.3249 19.0629 20.938L19.0628 20.938Z" fill="#647385"/>
<path d="M13.4231 12.2399H19.5034C19.6694 12.2399 19.8035 12.1058 19.8035 11.9398C19.8035 11.7739 19.6694 11.6397 19.5034 11.6397H13.4145C13.2906 11.0885 12.8543 10.6547 12.3006 10.5378V4.50028C12.3006 4.33433 12.1664 4.2002 12.0005 4.2002C11.8345 4.2002 11.7004 4.33433 11.7004 4.50028V10.5383C11.1469 10.6553 10.711 11.0891 10.5874 11.6399H4.49735C4.3314 11.6399 4.19727 11.774 4.19727 11.9399C4.19727 12.1059 4.3314 12.24 4.49735 12.24H10.5782C10.6908 12.8076 11.1351 13.2566 11.7003 13.3763V19.5065C11.7003 19.6725 11.8344 19.8066 12.0004 19.8066C12.1663 19.8066 12.3005 19.6725 12.3005 19.5065L12.3003 13.3763C12.8657 13.257 13.3103 12.8078 13.4232 12.24L13.4231 12.2399ZM12.0005 12.8083C11.5315 12.8083 11.1496 12.4266 11.1496 11.9572C11.1496 11.4876 11.5313 11.1061 12.0005 11.1061C12.4696 11.1061 12.8516 11.4878 12.8516 11.9572C12.8516 12.4268 12.4697 12.8083 12.0005 12.8083Z" fill="#647385"/>
</svg>
