<svg width="24" height="24" viewBox="0 0 24 24" fill="none" xmlns="http://www.w3.org/2000/svg">
<path d="M12 0C5.38286 0 0 5.38339 0 12C0 18.6166 5.38286 24 12 24C18.6171 24 24 18.6166 24 12C24 5.38339 18.6171 0 12 0ZM21.6954 6.01286L19.5789 7.23493C19.13 6.52345 18.5845 5.87909 17.9598 5.32098L19.5288 3.45102C20.3703 4.19266 21.1018 5.05521 21.6953 6.0128L21.6954 6.01286ZM23.1629 9.68459L20.7545 10.1092C20.5744 9.27486 20.2791 8.48281 19.8838 7.75204L21.999 6.53078C22.5337 7.5047 22.9309 8.56463 23.1629 9.68459ZM23.3998 12.0001C23.3998 12.5576 23.3578 13.1054 23.2799 13.6418L20.8724 13.2174C20.9268 12.819 20.9573 12.4132 20.9573 12.0001C20.9573 11.5581 20.9238 11.1241 20.8617 10.6991L23.2695 10.2747C23.3551 10.8377 23.3998 11.4138 23.3998 12.0001ZM22.0346 17.4044L19.9175 16.1821C20.3082 15.4453 20.6005 14.6488 20.7734 13.8088L23.1786 14.2328C22.9545 15.358 22.5647 16.4244 22.0346 17.4044ZM16.1921 22.5979L15.3565 20.3022C16.1475 19.9812 16.8821 19.5506 17.5423 19.0288L19.1122 20.8997C18.235 21.6021 17.2525 22.1768 16.1921 22.5978V22.5979ZM4.88801 20.8997L6.45792 19.0289C7.11814 19.5506 7.85266 19.9812 8.64369 20.3023L7.80808 22.5979C6.74753 22.1769 5.76503 21.6022 4.88801 20.8998V20.8997ZM9.20657 20.5088C9.99551 20.7685 10.8321 20.9208 11.6999 20.9495V23.3923C10.5392 23.3621 9.42128 23.1579 8.37096 22.8042L9.20657 20.5088ZM12.3001 20.9495C13.1679 20.9209 14.0045 20.7685 14.7935 20.5088L15.6291 22.8042C14.5786 23.1581 13.4609 23.3621 12.3001 23.3923V20.9495ZM12 20.3571C7.3918 20.3571 3.64287 16.6079 3.64287 11.9999C3.64287 7.39172 7.39202 3.64279 12 3.64279C16.608 3.64279 20.3572 7.39172 20.3572 11.9999C20.3572 16.6081 16.608 20.3571 12 20.3571ZM0.82073 14.2328L3.22598 13.8088C3.39883 14.6488 3.69117 15.4455 4.08189 16.1821L1.96475 17.4044C1.43489 16.4244 1.04503 15.358 0.82073 14.2328ZM0.599748 11.9999C0.599748 11.4136 0.644531 10.8375 0.730328 10.2746L3.1381 10.6989C3.07594 11.124 3.04246 11.558 3.04246 11.9999C3.04246 12.413 3.07301 12.8188 3.12742 13.2172L0.719866 13.6416C0.642021 13.1053 0.599748 12.5574 0.599748 11.9999ZM2.00075 6.53082L4.11596 7.75209C3.72066 8.48286 3.42516 9.2747 3.24521 10.1092L0.836802 9.68464C1.06866 8.56467 1.46584 7.50491 2.00075 6.53082ZM7.83521 1.3915L8.67082 3.68714C7.88669 4.00229 7.15764 4.42482 6.50118 4.93729L4.93127 3.06647C5.80496 2.37336 6.78157 1.80647 7.83521 1.3915ZM19.0691 3.06625L17.4992 4.93707C16.8426 4.4248 16.1135 4.00209 15.3296 3.68693L16.1652 1.39129C17.2186 1.80647 18.1953 2.37336 19.0691 3.06625ZM14.7659 3.48185C13.9851 3.2278 13.1579 3.07902 12.3003 3.05056V0.607806C13.4511 0.63773 14.5593 0.838414 15.6015 1.18643L14.7659 3.48185ZM11.7001 3.05056C10.8426 3.07902 10.0151 3.2278 9.23439 3.48185L8.39878 1.18642C9.44134 0.838414 10.5496 0.637741 11.7001 0.607795V3.05056ZM4.47066 3.45088L6.03971 5.32084C5.41486 5.87895 4.8695 6.52325 4.42062 7.23479L2.30412 6.01272C2.8978 5.05534 3.62937 4.19274 4.4706 3.45093L4.47066 3.45088ZM2.26416 17.9248L4.38066 16.7027C4.82722 17.4236 5.37237 18.077 5.99825 18.643L4.42919 20.513C3.58668 19.7634 2.85489 18.892 2.26416 17.9249V17.9248ZM19.5704 20.5134L18.0014 18.6434C18.6273 18.0774 19.1724 17.4238 19.6189 16.7031L21.7354 17.9252C21.1447 18.892 20.4129 19.7633 19.5704 20.5133V20.5134Z" fill="#647385"/>
<path d="M17.3254 10.4319L13.8316 9.92426L12.2692 6.75851C12.2188 6.65597 12.1143 6.59131 12.0001 6.59131C11.8858 6.59131 11.7816 6.65597 11.7312 6.75851L10.1684 9.92426L6.67453 10.4319C6.56153 10.4483 6.46757 10.5274 6.43221 10.6362C6.39684 10.7446 6.42635 10.8639 6.50817 10.9436L9.03626 13.4081L8.43942 16.8879C8.42017 17.0005 8.46642 17.1141 8.5587 17.1811C8.65141 17.2485 8.77361 17.2573 8.87469 17.2039L11.9998 15.5612L15.1248 17.2039C15.1687 17.2271 15.2166 17.2384 15.2643 17.2384C15.3265 17.2384 15.3884 17.2192 15.4407 17.1811C15.533 17.1139 15.5793 17.0003 15.56 16.8879L14.9632 13.4081L17.4913 10.9436C17.5731 10.8639 17.6024 10.7446 17.5672 10.6362C17.5325 10.5276 17.4386 10.4485 17.3253 10.4319L17.3254 10.4319ZM14.4319 13.0885C14.3614 13.1574 14.3292 13.2568 14.3457 13.3539L14.8664 16.3899L12.1398 14.9566C12.0526 14.9104 11.948 14.9104 11.8607 14.9566L9.13402 16.3899L9.65466 13.3539C9.6712 13.2566 9.63897 13.1574 9.56845 13.0885L7.36259 10.9381L10.4109 10.4951C10.5086 10.4811 10.5932 10.4196 10.6367 10.3311L12.0003 7.56897L13.3634 10.3312C13.4071 10.4197 13.4917 10.4813 13.5894 10.4953L16.6377 10.9383L14.4319 13.0885Z" fill="#647385"/>
</svg>
