<svg width="32" height="33" viewBox="0 0 32 33" fill="none" xmlns="http://www.w3.org/2000/svg">
<g clip-path="url(#clip0_6939_1481)">
<path d="M19.341 32.5C20.411 32.5 21.344 31.567 21.344 30.497V25.8192H22.6815C23.484 25.8192 24.0189 25.2841 24.0189 24.4817V11.1211H7.98242V24.4818C7.98242 25.2843 8.51739 25.8193 9.31985 25.8193H10.6574V30.4971C10.6574 31.5671 11.5902 32.5001 12.6604 32.5001C13.7302 32.5001 14.6632 31.5671 14.6632 30.4971V25.8193H17.3381V30.4971C17.338 31.567 18.2711 32.5 19.341 32.5Z" fill="white"/>
<path d="M27.3585 24.4818C28.4284 24.4818 29.3612 23.5489 29.3612 22.4788V13.1232C29.3612 12.059 28.4284 11.1211 27.3585 11.1211C26.2884 11.1211 25.3555 12.059 25.3555 13.1232V22.4788C25.3555 23.5488 26.2883 24.4818 27.3585 24.4818Z" fill="white"/>
<path d="M4.64146 24.4818C5.71151 24.4818 6.64445 23.5489 6.64445 22.4788V13.1232C6.64445 12.059 5.71161 11.1211 4.64146 11.1211C3.57151 11.1211 2.63867 12.059 2.63867 13.1232V22.4788C2.63867 23.5488 3.57151 24.4818 4.64146 24.4818Z" fill="white"/>
<path d="M22.4139 0.701816C22.1465 0.432728 21.7484 0.432728 21.481 0.701816L19.6872 2.48965L19.6045 2.5723C18.5408 2.03967 17.3483 1.77368 16.0202 1.77112C16.0137 1.77112 16.0073 1.77091 16.0008 1.77091H16.0006C15.9939 1.77091 15.9877 1.77112 15.981 1.77112C14.653 1.77368 13.4605 2.03967 12.397 2.5723L12.314 2.48965L10.5203 0.701816C10.2527 0.432728 9.85483 0.432728 9.58745 0.701816C9.31985 0.969409 9.31985 1.36653 9.58745 1.63391L11.3226 3.36942C10.7635 3.74272 10.2565 4.19953 9.81564 4.72201C8.76011 5.97316 8.08685 7.60147 7.99427 9.3657C7.99342 9.38407 7.99161 9.40222 7.99075 9.42059C7.98509 9.54071 7.98242 9.66148 7.98242 9.78268H24.0189C24.0189 9.66148 24.016 9.54071 24.0106 9.42059C24.0097 9.40222 24.0079 9.38407 24.0068 9.3657C23.9145 7.60147 23.241 5.97306 22.1855 4.72212C21.7448 4.19964 21.2376 3.74283 20.6785 3.36952L22.4139 1.63401C22.6815 1.36653 22.6815 0.969409 22.4139 0.701816ZM12.6578 7.44749C12.1045 7.44749 11.6559 6.9989 11.6559 6.44556C11.6559 5.89222 12.1045 5.44364 12.6578 5.44364C13.2112 5.44364 13.6598 5.89222 13.6598 6.44556C13.6598 6.9989 13.2112 7.44749 12.6578 7.44749ZM19.3435 7.44749C18.7901 7.44749 18.3416 6.9989 18.3416 6.44556C18.3416 5.89222 18.7901 5.44364 19.3435 5.44364C19.8968 5.44364 20.3454 5.89222 20.3454 6.44556C20.3454 6.9989 19.8968 7.44749 19.3435 7.44749Z" fill="white"/>
</g>
<defs>
<clipPath id="clip0_6939_1481">
<rect width="32" height="32" fill="white" transform="translate(0 0.5)"/>
</clipPath>
</defs>
</svg>
