<svg width="161" height="40" viewBox="0 0 161 40" fill="none" xmlns="http://www.w3.org/2000/svg">
<g filter="url(#filter0_d_2988_1037)">
<path d="M19.1338 17.5748C21.0335 16.7101 22.665 15.9434 23.8402 15.2419C25.0422 14.4844 26.1124 13.5522 27.012 12.4793C27.9062 11.389 28.4137 10.0559 28.461 8.67266C28.5937 7.23874 28.2801 5.79935 27.5597 4.53428C26.7972 3.33076 25.7402 2.32129 24.4791 1.59227C23.098 0.861548 21.5944 0.364755 20.0352 0.123993C19.2804 0.0130208 18.5147 -0.0143516 17.7533 0.0424216H17.6905L13.1267 0.385021L10.7935 3.58261V4.35482C10.6338 4.62647 10.5129 4.91727 10.4341 5.21948L10.8848 5.38806L10.9761 7.98202L15.5056 7.37839C16.3214 5.30105 17.5878 4.44183 19.1338 4.69742C19.4772 4.75332 19.8055 4.87398 20.0993 5.05233C20.3932 5.23068 20.6468 5.46314 20.8452 5.73609C21.1879 6.34442 21.346 7.03178 21.3016 7.72099C21.2103 8.67266 20.6684 9.62432 19.7613 10.7446C18.688 11.8594 17.5035 12.872 16.2244 13.7681C14.893 14.7129 13.5023 15.5792 12.06 16.3621C10.6965 17.1343 9.70392 17.7434 9.065 18.086L8.79688 22.0612L26.7382 27.4993L27.0976 22.0612L15.9791 19.0376V18.9506C16.2301 18.7821 17.3197 18.3524 19.1338 17.5748Z" fill="#BF2824"/>
<path d="M22.1239 28.2838L22.5745 22.7587L11.2507 19.6481V19.5828C11.5188 19.4958 12.5171 18.9792 14.4225 18.2015C16.0712 17.4853 17.6733 16.6754 19.2202 15.7762C20.4654 15.0365 21.5437 14.0678 22.392 12.9266C23.2714 11.8285 23.7771 10.5001 23.841 9.11995C23.9805 7.64625 23.6249 6.16842 22.8255 4.9C22.0792 3.6561 20.9798 2.63824 19.6537 1.96343C18.277 1.24062 16.7855 0.737299 15.2383 0.4734C13.8153 0.253048 12.3585 0.342283 10.9769 0.734428C9.74348 1.05958 8.61935 1.68342 7.71377 2.54531C6.77755 3.40134 6.08802 4.47251 5.71141 5.65589L10.9655 7.98883C11.7812 5.8136 12.8708 4.87825 14.3883 5.13928C14.7319 5.19244 15.0608 5.3114 15.3549 5.48897C15.649 5.66655 15.9024 5.89907 16.0997 6.17251C16.4423 6.78284 16.6003 7.47191 16.5561 8.16285C16.3691 9.31225 15.7967 10.373 14.9245 11.1864C13.8614 12.2994 12.6863 13.3103 11.4161 14.2046C10.0847 15.1493 8.69398 16.0156 7.25168 16.7985C5.8141 17.5762 4.81577 18.1798 4.27383 18.5278L4 22.4976L22.1239 28.2838Z" fill="#E74B4A"/>
<path d="M32.8135 17.0572L35.6203 8.1605L34.2625 4.70188L32.9961 4.89765C32.9488 4.26379 32.7887 3.64223 32.5226 3.05957L34.6961 1.42815L28.9914 0.650504C28.0258 0.552343 27.0506 0.581622 26.0934 0.737513C24.6664 0.995658 23.3084 1.52456 22.1001 2.2928C20.8141 3.15467 19.7075 4.23715 18.837 5.48496C17.8532 6.81248 17.1463 8.30789 16.7548 9.88981L21.735 11.1025L27.5595 6.77379C27.5595 6.9478 27.6508 7.20883 27.6508 7.46986C27.542 8.68037 27.171 9.85622 26.5612 10.923C25.6694 12.5371 24.6709 14.0955 23.5719 15.5889C22.2998 17.3128 21.0333 19.0421 19.493 20.853C17.9528 22.6639 16.8632 24.0506 16.1387 25.0186V29.5974L21.1132 31.9956L38.6894 18.9442L32.8135 17.0572Z" fill="#1E5D65"/>
<path d="M38.7968 23.6222V18.7823L29.2756 22.6705V22.5835C29.5494 22.3225 30.4565 21.1152 32.1793 19.2173C33.8108 17.314 35.0773 15.7587 35.9843 14.4644C36.8503 13.2448 37.5788 11.9415 38.1578 10.5762C38.6798 9.36792 38.9566 8.0762 38.9736 6.76955C39.0429 5.58516 38.726 4.40934 38.0666 3.40338C37.4772 2.54438 36.5714 1.92731 35.528 1.67407C34.2567 1.33879 32.918 1.3089 31.6316 1.58706C30.1191 1.87414 28.6759 2.42739 27.3759 3.21848C25.9823 4.11721 24.7818 5.26162 23.839 6.5901C22.8501 7.99312 22.1207 9.54735 21.6826 11.1853L27.9578 11.0113C28.591 8.41729 29.6692 6.94901 31.1296 6.60641C31.4056 6.4968 31.7102 6.47088 32.0021 6.53218C32.2941 6.59348 32.5591 6.73902 32.7612 6.94901C33.1353 7.46213 33.3126 8.08242 33.2632 8.70551C33.1792 9.98638 32.7763 11.2298 32.088 12.3327C31.1697 14.0328 30.1409 15.6765 29.0075 17.2542C27.7353 19.0705 26.2863 20.8814 24.7461 22.7847C23.1145 24.7696 21.9393 26.2379 21.2148 27.1025V31.8554L38.7968 23.6222Z" fill="#32909D"/>
<path d="M53.4777 8.11402C53.3318 8.11402 53.2588 8.18602 53.2588 8.33002V18.074C53.2588 18.218 53.3318 18.29 53.4777 18.29H61.0399C61.899 18.29 62.6285 18.434 63.2283 18.722C63.8443 18.994 64.3549 19.378 64.7602 19.874C65.1655 20.354 65.4897 20.922 65.7328 21.578C65.976 22.218 66.1705 22.906 66.3164 23.642H47.2285V7.39402C47.2285 6.69002 47.3744 6.05802 47.6662 5.49802C47.958 4.92202 48.3389 4.43402 48.809 4.03402C49.2954 3.63402 49.8465 3.32202 50.4625 3.09802C51.0947 2.87402 51.7431 2.76202 52.4078 2.76202H66.3164C66.1705 3.48202 65.976 4.17002 65.7328 4.82602C65.4897 5.48202 65.1574 6.05802 64.7359 6.55402C64.3306 7.05002 63.8281 7.44202 63.2283 7.73002C62.6285 8.01802 61.899 8.16202 61.0399 8.16202L53.4777 8.11402Z" fill="white"/>
<path d="M79.3801 18.386C79.3801 18.002 79.3963 17.626 79.4287 17.258C79.4611 16.874 79.4773 16.498 79.4773 16.13C79.4773 15.97 79.3963 15.89 79.2342 15.89H72.7419C72.5798 15.89 72.4987 15.97 72.4987 16.13V19.034C72.4987 19.882 72.3123 20.594 71.9394 21.17C71.5828 21.73 71.1127 22.194 70.5291 22.562C69.9618 22.914 69.3214 23.178 68.6082 23.354C67.8949 23.53 67.1816 23.658 66.4684 23.738V7.41802C66.4684 6.71402 66.6143 6.08202 66.9061 5.52202C67.1979 4.94602 67.5788 4.45802 68.0489 4.05802C68.5352 3.64202 69.0864 3.32202 69.7024 3.09802C70.3346 2.87402 70.983 2.76202 71.6476 2.76202H85.5076V23.738C84.6485 23.642 83.8461 23.49 83.1004 23.282C82.3547 23.074 81.7063 22.778 81.1551 22.394C80.604 21.994 80.1663 21.474 79.8421 20.834C79.5341 20.178 79.3801 19.362 79.3801 18.386ZM79.4773 8.35402C79.4773 8.19402 79.3963 8.11402 79.2342 8.11402H72.7419C72.5798 8.11402 72.4987 8.19402 72.4987 8.35402V10.322C72.4987 10.466 72.5798 10.538 72.7419 10.538H79.2342C79.3963 10.538 79.4773 10.466 79.4773 10.322V8.35402Z" fill="white"/>
<path d="M101.348 23.642H87.4394C87.5853 22.906 87.7798 22.218 88.023 21.578C88.2662 20.922 88.5904 20.354 88.9956 19.874C89.4009 19.378 89.9034 18.994 90.5032 18.722C91.1192 18.434 91.8568 18.29 92.716 18.29H100.278C100.424 18.29 100.497 18.218 100.497 18.074V16.106C100.497 15.946 100.424 15.866 100.278 15.866H87.5367V7.39402C87.5367 6.69002 87.6826 6.05802 87.9744 5.49802C88.2662 4.92202 88.6471 4.43402 89.1172 4.03402C89.6035 3.63402 90.1547 3.32202 90.7707 3.09802C91.4029 2.87402 92.0513 2.76202 92.716 2.76202H106.625C106.479 3.48202 106.284 4.17002 106.041 4.82602C105.798 5.48202 105.466 6.05802 105.044 6.55402C104.639 7.05002 104.136 7.44202 103.536 7.73002C102.937 8.01802 102.207 8.16202 101.348 8.16202L93.7858 8.11402C93.6399 8.11402 93.567 8.18602 93.567 8.33002V10.298C93.567 10.458 93.6399 10.538 93.7858 10.538H106.527V19.01C106.527 19.698 106.381 20.33 106.09 20.906C105.798 21.482 105.409 21.97 104.922 22.37C104.452 22.77 103.901 23.082 103.269 23.306C102.653 23.53 102.013 23.642 101.348 23.642Z" fill="white"/>
<path d="M107.964 23.762V7.37002C107.964 6.76202 108.094 6.21002 108.353 5.71402C108.596 5.20202 108.928 4.73802 109.35 4.32202C109.642 4.03402 109.974 3.79402 110.347 3.60202C110.72 3.39402 111.109 3.23402 111.514 3.12202C111.935 2.99402 112.357 2.89802 112.778 2.83402C113.216 2.77002 113.638 2.71402 114.043 2.66602V19.034C114.043 19.642 113.913 20.202 113.654 20.714C113.411 21.21 113.078 21.666 112.657 22.082C112.365 22.37 112.025 22.61 111.636 22.802C111.263 23.01 110.866 23.17 110.444 23.282C110.039 23.41 109.625 23.506 109.204 23.57C108.782 23.65 108.369 23.714 107.964 23.762Z" fill="white"/>
<path d="M129.052 23.738V8.35402C129.052 8.19402 128.971 8.11402 128.809 8.11402H122.317C122.155 8.11402 122.073 8.19402 122.073 8.35402V19.034C122.073 19.882 121.887 20.594 121.514 21.17C121.158 21.73 120.687 22.194 120.104 22.562C119.537 22.914 118.896 23.178 118.183 23.354C117.47 23.53 116.756 23.658 116.043 23.738V7.41802C116.043 6.71402 116.189 6.08202 116.481 5.52202C116.773 4.94602 117.154 4.45802 117.624 4.05802C118.11 3.64202 118.661 3.32202 119.277 3.09802C119.909 2.87402 120.558 2.76202 121.222 2.76202H135.082V19.034C135.082 19.882 134.896 20.594 134.523 21.17C134.167 21.73 133.696 22.194 133.113 22.562C132.529 22.914 131.881 23.178 131.168 23.354C130.454 23.53 129.749 23.658 129.052 23.738Z" fill="white"/>
<path d="M150.899 23.642H137.088V7.39402C137.088 6.69002 137.234 6.05802 137.525 5.49802C137.817 4.92202 138.198 4.43402 138.668 4.03402C139.155 3.63402 139.706 3.32202 140.322 3.09802C140.954 2.87402 141.602 2.76202 142.267 2.76202H156.078V19.01C156.078 19.698 155.932 20.33 155.641 20.906C155.349 21.482 154.96 21.97 154.473 22.37C154.003 22.77 153.452 23.082 152.82 23.306C152.204 23.53 151.564 23.642 150.899 23.642ZM150.048 8.33002C150.048 8.18602 149.975 8.11402 149.829 8.11402H143.337C143.191 8.11402 143.118 8.18602 143.118 8.33002V18.074C143.118 18.218 143.191 18.29 143.337 18.29H149.829C149.975 18.29 150.048 18.218 150.048 18.074V8.33002Z" fill="white"/>
</g>
<defs>
<filter id="filter0_d_2988_1037" x="0" y="0" width="162" height="40" filterUnits="userSpaceOnUse" color-interpolation-filters="sRGB">
<feFlood flood-opacity="0" result="BackgroundImageFix"/>
<feColorMatrix in="SourceAlpha" type="matrix" values="0 0 0 0 0 0 0 0 0 0 0 0 0 0 0 0 0 0 127 0" result="hardAlpha"/>
<feOffset dy="4"/>
<feGaussianBlur stdDeviation="2"/>
<feComposite in2="hardAlpha" operator="out"/>
<feColorMatrix type="matrix" values="0 0 0 0 0 0 0 0 0 0 0 0 0 0 0 0 0 0 0.25 0"/>
<feBlend mode="normal" in2="BackgroundImageFix" result="effect1_dropShadow_2988_1037"/>
<feBlend mode="normal" in="SourceGraphic" in2="effect1_dropShadow_2988_1037" result="shape"/>
</filter>
</defs>
</svg>
