<svg width="75" height="48" viewBox="0 0 75 48" fill="none" xmlns="http://www.w3.org/2000/svg">
<g clip-path="url(#clip0_2988_636)">
<path d="M73.9671 37.9385V37.0479H73.7359L73.4683 37.6596L73.2021 37.0479H72.9694V37.9385H73.1338V37.2669L73.3839 37.8465H73.5541L73.8042 37.2654V37.9385H73.9671ZM72.4997 37.9385V37.1997H72.7964V37.0493H72.0401V37.1997H72.3368V37.9385H72.4997Z" fill="#F79410"/>
<path d="M47.6727 41.7726H27.6579V5.66357H47.6727V41.7726Z" fill="#FF5F00"/>
<path d="M28.9402 23.7146C28.9402 16.3896 32.3566 9.86484 37.6768 5.66001C33.7863 2.58523 28.8762 0.75 23.5401 0.75C10.9071 0.75 0.666656 11.0314 0.666656 23.7146C0.666656 36.3977 10.9071 46.679 23.5401 46.679C28.8762 46.679 33.7863 44.8438 37.6768 41.769C32.3566 37.5642 28.9402 31.0394 28.9402 23.7146Z" fill="#EB001B"/>
<path d="M74.6672 23.7146C74.6672 36.3977 64.4267 46.679 51.7938 46.679C46.4576 46.679 41.5476 44.8438 37.6555 41.769C42.9773 37.5642 46.3937 31.0394 46.3937 23.7146C46.3937 16.3896 42.9773 9.86484 37.6555 5.66001C41.5476 2.58523 46.4576 0.75 51.7938 0.75C64.4267 0.75 74.6672 11.0314 74.6672 23.7146Z" fill="#F79E1B"/>
</g>
<defs>
<clipPath id="clip0_2988_636">
<rect width="74" height="48" fill="white" transform="translate(0.666656)"/>
</clipPath>
</defs>
</svg>
