<svg width="179" height="48" viewBox="0 0 179 48" fill="none" xmlns="http://www.w3.org/2000/svg">
<path d="M62.7486 9.24561C62.0772 9.24561 61.47 9.09689 60.9271 8.7994C60.3939 8.49285 59.966 8.08265 59.6441 7.56873C59.3312 7.04582 59.175 6.46431 59.175 5.82414C59.175 5.18403 59.3312 4.6115 59.6441 4.10663C59.957 3.59277 60.3849 3.187 60.9271 2.8895C61.47 2.58296 62.0727 2.42969 62.7351 2.42969C63.4155 2.42969 64.0226 2.58296 64.5565 2.8895C65.0994 3.187 65.5267 3.59277 65.8396 4.10663C66.1525 4.6115 66.3092 5.18403 66.3092 5.82414C66.3092 6.46431 66.1525 7.04582 65.8396 7.56873C65.5267 8.08265 65.0994 8.49285 64.5565 8.7994C64.0226 9.09689 63.4206 9.24561 62.7486 9.24561ZM62.7351 7.59575C63.0756 7.59575 63.3744 7.52367 63.632 7.37939C63.8986 7.22611 64.101 7.01873 64.2391 6.75731C64.3863 6.48684 64.4602 6.18029 64.4602 5.83768C64.4602 5.49506 64.3863 5.19307 64.2391 4.93159C64.092 4.6701 63.8896 4.46728 63.632 4.32299C63.3744 4.16972 63.0756 4.09309 62.7351 4.09309C62.4036 4.09309 62.1093 4.16972 61.8517 4.32299C61.594 4.46728 61.3916 4.6701 61.2445 4.93159C61.0974 5.19307 61.0241 5.49506 61.0241 5.83768C61.0241 6.18029 61.0974 6.48684 61.2445 6.75731C61.3916 7.01873 61.594 7.22611 61.8517 7.37939C62.1093 7.52367 62.4036 7.59575 62.7351 7.59575Z" fill="black"/>
<path fill-rule="evenodd" clip-rule="evenodd" d="M73.9857 9.1105H72.1919V8.5171C72.0172 8.68638 71.8148 8.83009 71.5848 8.94818C71.1986 9.14657 70.7662 9.24568 70.2876 9.24568C69.6714 9.24568 69.1195 9.09696 68.6319 8.7994C68.1442 8.50191 67.7581 8.0962 67.4728 7.58228C67.1966 7.06842 67.0591 6.4914 67.0591 5.85123C67.0591 5.20213 67.1966 4.62056 67.4728 4.1067C67.7581 3.59278 68.1397 3.18707 68.6184 2.88951C69.1054 2.59202 69.6624 2.44324 70.2876 2.44324C70.7662 2.44324 71.1941 2.53791 71.5713 2.72725C71.8013 2.84002 72.0037 2.97994 72.1784 3.14707V1.77161C72.1784 0.793191 72.9873 0 73.9857 0C73.9857 3.25928 73.9857 5.85129 73.9857 9.1105ZM71.4743 7.39293C71.2263 7.53722 70.932 7.60936 70.5915 7.60936C70.2696 7.60936 69.9798 7.53722 69.7222 7.39293C69.4646 7.23966 69.2622 7.03235 69.115 6.77086C68.9769 6.50039 68.9075 6.18935 68.9075 5.83775C68.9075 5.49513 68.9769 5.19308 69.115 4.93166C69.2622 4.67017 69.4601 4.4628 69.7081 4.30952C69.9657 4.15625 70.2645 4.07961 70.605 4.07961C70.9365 4.07961 71.2263 4.15625 71.4743 4.30952C71.7319 4.45381 71.9298 4.66112 72.0679 4.93166C72.215 5.19308 72.2883 5.49513 72.2883 5.83775C72.2883 6.18935 72.215 6.50039 72.0679 6.77086C71.9298 7.03235 71.7319 7.23966 71.4743 7.39293Z" fill="black"/>
<path fill-rule="evenodd" clip-rule="evenodd" d="M76.7305 8.79952C77.2181 9.09702 77.7655 9.24586 78.3727 9.24586C78.8507 9.24586 79.2786 9.15112 79.6557 8.96178C79.9063 8.82996 80.1228 8.66821 80.304 8.47659V9.11056H82.0984V2.5786H80.304V3.20649C80.1228 3.01291 79.9063 2.85318 79.6557 2.72737C79.2786 2.53803 78.8507 2.44336 78.3727 2.44336C77.7655 2.44336 77.2181 2.59214 76.7305 2.88963C76.2428 3.18712 75.8612 3.5929 75.5849 4.10676C75.3093 4.62068 75.1711 5.20219 75.1711 5.85135C75.1711 6.49146 75.3093 7.06848 75.5849 7.5824C75.8612 8.09626 76.2428 8.50196 76.7305 8.79952ZM79.932 7.12258C79.6191 7.44716 79.2098 7.60942 78.7035 7.60942C78.3727 7.60942 78.0784 7.53734 77.8208 7.39305C77.5721 7.23978 77.3742 7.0324 77.2271 6.77098C77.089 6.50051 77.0202 6.18941 77.0202 5.8378C77.0202 5.49519 77.089 5.1932 77.2271 4.93172C77.3742 4.66124 77.5721 4.45387 77.8208 4.30964C78.0784 4.15637 78.3727 4.07973 78.7035 4.07973C79.0441 4.07973 79.3383 4.15637 79.587 4.30964C79.8446 4.45387 80.0418 4.66124 80.18 4.93172C80.3271 5.1932 80.401 5.49519 80.401 5.8378C80.401 6.36071 80.2442 6.78902 79.932 7.12258Z" fill="black"/>
<path d="M56.3526 7.33895C56.3526 8.31737 57.1622 9.11056 58.1606 9.11056V4.97228C58.1606 4.5305 58.0501 4.1203 57.8291 3.74161C57.608 3.35394 57.3048 3.0429 56.918 2.8085C56.5319 2.56505 56.095 2.44336 55.6073 2.44336C55.1017 2.44336 54.6461 2.55157 54.2413 2.76794C54.0289 2.88419 53.8402 3.02512 53.6754 3.1908V2.5786H51.8678V7.33895C51.8678 8.31743 52.6771 9.11056 53.6754 9.11056V5.36445C53.6754 5.10296 53.7308 4.87312 53.8411 4.67479C53.9607 4.47639 54.1217 4.32319 54.324 4.21497C54.5265 4.10676 54.7567 4.05265 55.0143 4.05265C55.4094 4.05265 55.7313 4.17441 55.98 4.41779C56.2286 4.66125 56.3526 4.97678 56.3526 5.36451V7.33895Z" fill="black"/>
<path fill-rule="evenodd" clip-rule="evenodd" d="M13.1404 2.41718H9.3305C9.27582 2.41718 9.21954 2.41712 9.16198 2.41712H9.16088C8.39221 2.41636 7.381 2.41541 6.49623 2.53615C5.39905 2.68588 3.77728 3.1007 2.39221 4.50647C1.00719 5.91218 0.598443 7.55824 0.450927 8.67177C0.331939 9.56989 0.332902 10.5962 0.333609 11.3763V11.3775C0.333673 11.4359 0.333738 11.4929 0.333738 11.5485V15.4623H5.3932V11.5485C5.3932 9.66469 5.3932 8.72272 5.96977 8.13754C6.54641 7.55229 7.47448 7.5523 9.3305 7.5523H13.1404V2.41718ZM40.3371 15.4623V11.5485C40.3371 9.66469 40.3371 8.72272 39.7604 8.13754C39.1838 7.55229 38.2558 7.5523 36.3997 7.5523H32.5373V2.41718H36.3997C36.4544 2.41718 36.5106 2.41712 36.5681 2.41712H36.5694C37.338 2.41636 38.3491 2.41541 39.234 2.53615C40.3312 2.68588 41.9529 3.1007 43.3379 4.50647C44.723 5.91218 45.1317 7.55824 45.2793 8.67177C45.3983 9.56989 45.3973 10.5962 45.3966 11.3763L45.3965 11.4672V11.4808V11.5485V15.4623H40.3371ZM32.5373 42.519H36.3997C38.2558 42.519 39.1838 42.519 39.7604 41.9336C40.3371 41.3483 40.3371 40.4066 40.3371 38.5227V34.5883H45.3965V38.5227V38.6068L45.3966 38.6948C45.3973 39.4751 45.3983 40.5015 45.2793 41.3995C45.1317 42.5127 44.723 44.1587 43.3379 45.5648C41.9529 46.9703 40.3312 47.3855 39.234 47.5348C38.3512 47.6557 37.3423 47.6544 36.5742 47.6538H36.5694C36.5113 47.6538 36.4547 47.6538 36.3997 47.6538H32.5373V42.519ZM5.3932 34.5883V38.5227C5.3932 40.4066 5.3932 41.3483 5.96977 41.9336C6.54641 42.519 7.47448 42.519 9.3305 42.519H13.1404V47.6538H9.3305H9.26105C9.22815 47.6538 9.19474 47.6538 9.16076 47.6538H9.15594C8.38791 47.6544 7.37914 47.6557 6.49623 47.5348C5.39905 47.3855 3.77728 46.9703 2.39221 45.5648C1.00719 44.1587 0.598443 42.5127 0.450927 41.3995C0.331939 40.5015 0.332902 39.4751 0.333609 38.6948C0.333673 38.6366 0.333738 38.5783 0.333738 38.5227V34.5883H5.3932Z" fill="black"/>
<path d="M35.685 17.6714C35.685 20.7653 33.1865 23.2734 30.1045 23.2734C27.0226 23.2734 24.524 20.7653 24.524 17.6714C24.524 14.5774 27.0226 12.0693 30.1045 12.0693C33.1865 12.0693 35.685 14.5774 35.685 17.6714Z" fill="black"/>
<path d="M30.1045 27.1943C27.0226 27.1943 24.524 29.7029 24.524 32.7962V37.8386H35.685V32.7962C35.685 29.7029 33.1865 27.1943 30.1045 27.1943Z" fill="black"/>
<path d="M10.0449 32.6805C10.0449 29.7416 12.4185 27.3584 15.3464 27.3584H20.6478V38.0026H15.3464C12.4185 38.0026 10.0449 35.62 10.0449 32.6805Z" fill="#ACACAC"/>
<path d="M10.0449 12.2324H16.1836C18.6491 12.2324 20.6478 14.2388 20.6478 16.7139V22.8763H10.0449V12.2324Z" fill="#ACACAC"/>
<path d="M174.412 36.3994C175.719 36.3994 176.699 36.757 177.352 37.4714C178.007 38.1859 178.333 39.2155 178.333 40.5603V47.748H174.092V41.0647C174.092 40.5888 173.964 40.2103 173.708 39.93C173.467 39.6357 173.118 39.4889 172.665 39.4889C172.139 39.4889 171.713 39.6566 171.386 39.9933C171.058 40.3293 170.895 40.7425 170.895 41.233V47.748H166.654V36.6519H170.128L170.405 38.3327C170.846 37.7442 171.422 37.2753 172.131 36.9247C172.856 36.5747 173.616 36.3994 174.412 36.3994Z" fill="black"/>
<path d="M158.682 36.3994C160.658 36.3994 162.207 36.8968 163.329 37.8916C164.466 38.8725 165.034 40.3084 165.034 42.2C165.034 44.0915 164.466 45.5343 163.329 46.5292C162.207 47.5094 160.658 47.9999 158.682 47.9999C156.708 47.9999 155.159 47.5094 154.036 46.5292C152.914 45.5483 152.353 44.1054 152.353 42.2C152.353 40.2945 152.914 38.851 154.036 37.8708C155.159 36.8899 156.708 36.3994 158.682 36.3994ZM158.682 39.2364C157.291 39.2364 156.594 40.0281 156.594 41.6114V42.8094C156.594 44.3782 157.291 45.1629 158.682 45.1629C160.089 45.1629 160.792 44.3782 160.792 42.8094V41.6114C160.792 40.0281 160.089 39.2364 158.682 39.2364Z" fill="black"/>
<path d="M146.343 35.3482V32.5112H150.584V35.3482H146.343ZM146.343 47.7473V36.6512H150.584V47.7473H146.343Z" fill="black"/>
<path d="M144.652 36.6519V39.4889H142.265V43.7131C142.265 44.2174 142.35 44.5883 142.521 44.8269C142.691 45.0509 143.003 45.1629 143.459 45.1629H144.652V47.6214C144.311 47.7341 143.87 47.8252 143.33 47.8948C142.791 47.9651 142.322 47.9999 141.924 47.9999C140.673 47.9999 139.707 47.7759 139.025 47.3278C138.357 46.8791 138.023 46.1159 138.023 45.037V39.4889H136.447V36.6519H138.193L139.11 33.2891H142.265V36.6519H144.652Z" fill="black"/>
<path d="M129.277 36.3994C130.996 36.3994 132.396 36.6867 133.475 37.2613C134.556 37.8214 135.095 38.739 135.095 40.0141V44.3434C135.095 44.5813 135.152 44.7775 135.266 44.9319C135.379 45.0857 135.55 45.1629 135.777 45.1629H136.545V47.5797C136.502 47.6081 136.389 47.6569 136.203 47.7271C136.033 47.7828 135.785 47.8391 135.458 47.8948C135.13 47.9651 134.754 47.9999 134.328 47.9999C133.504 47.9999 132.821 47.8809 132.282 47.6429C131.756 47.3904 131.395 47.0475 131.195 46.6133C130.654 47.0335 130.051 47.3696 129.384 47.6221C128.716 47.8739 127.934 47.9999 127.038 47.9999C124.396 47.9999 123.075 46.9633 123.075 44.8895C123.075 43.8111 123.366 42.9916 123.948 42.4309C124.546 41.8563 125.398 41.464 126.506 41.2539C127.614 41.0438 129.063 40.9387 130.854 40.9387V40.3926C130.854 39.9578 130.697 39.6288 130.385 39.4047C130.086 39.1807 129.696 39.0687 129.213 39.0687C128.772 39.0687 128.388 39.1453 128.061 39.2997C127.749 39.4535 127.592 39.699 127.592 40.035V40.1192H123.415C123.401 40.049 123.394 39.9509 123.394 39.8249C123.394 38.7744 123.899 37.9404 124.908 37.324C125.931 36.7076 127.387 36.3994 129.277 36.3994ZM130.854 42.9144C129.646 42.9144 128.751 43.0473 128.169 43.3137C127.6 43.5656 127.315 43.9092 127.315 44.3434C127.315 45.0439 127.8 45.3939 128.765 45.3939C129.32 45.3939 129.803 45.247 130.215 44.9528C130.641 44.6585 130.854 44.294 130.854 43.8599V42.9144Z" fill="black"/>
<path d="M115.743 36.3994C117.59 36.3994 119.083 36.7918 120.218 37.5765C121.37 38.3466 121.945 39.5307 121.945 41.1279H117.832C117.832 39.8673 117.136 39.2364 115.743 39.2364C114.351 39.2364 113.655 40.0281 113.655 41.6114V42.8094C113.655 44.3782 114.38 45.1629 115.828 45.1629C117.277 45.1629 118.002 44.5186 118.002 43.2296H121.945C121.945 44.8408 121.37 46.0387 120.218 46.8234C119.083 47.6075 117.59 47.9999 115.743 47.9999C113.768 47.9999 112.219 47.5094 111.097 46.5292C109.975 45.5483 109.413 44.1054 109.413 42.2C109.413 40.2945 109.975 38.851 111.097 37.8708C112.219 36.8899 113.768 36.3994 115.743 36.3994Z" fill="black"/>
<path d="M100.59 32.2598C100.874 32.2598 101.222 32.3015 101.634 32.3857C102.046 32.4559 102.381 32.5395 102.636 32.6376V35.0968H101.868C101.414 35.0968 101.108 35.1809 100.952 35.3486C100.796 35.517 100.718 35.8043 100.718 36.2105V36.6516H102.636V39.4886H100.718V47.7483H96.4767V39.4886H95.0272V36.6516H96.4767V36.1897C96.4767 34.7601 96.832 33.7514 97.5419 33.1635C98.2525 32.561 99.2683 32.2598 100.59 32.2598ZM103.531 35.3486V32.5116H107.772V35.3486H103.531ZM103.531 47.7483V36.6516H107.772V47.7483H103.531Z" fill="black"/>
<path d="M89.6135 35.3482V32.5112H93.8546V35.3482H89.6135ZM89.6135 47.7473V36.6512H93.8546V47.7473H89.6135Z" fill="black"/>
<path d="M87.262 36.3789C87.5891 36.3789 87.8801 36.4207 88.1358 36.5048C88.3915 36.5751 88.5194 36.6168 88.5194 36.6308V40.1405H87.1554C86.2745 40.1405 85.6352 40.3651 85.2375 40.8132C84.8533 41.2612 84.6619 41.9269 84.6619 42.8097V47.7484H80.4202V36.6523H83.8947L84.1717 38.3331C84.4274 37.6889 84.8321 37.2054 85.3866 36.8833C85.9404 36.5472 86.5656 36.3789 87.262 36.3789Z" fill="black"/>
<path d="M72.4495 36.3994C74.51 36.3994 76.0802 36.8759 77.1596 37.8284C78.2538 38.7814 78.8012 40.2382 78.8012 42.2V42.9144H70.3608C70.3608 43.7131 70.5388 44.3155 70.8941 44.7218C71.2635 45.1281 71.8385 45.3312 72.6204 45.3312C73.3304 45.3312 73.8495 45.1838 74.1759 44.8895C74.5171 44.5959 74.6873 44.2035 74.6873 43.7131H78.8012C78.8012 45.0578 78.2821 46.109 77.2451 46.8652C76.2081 47.6221 74.6944 47.9999 72.7053 47.9999C70.6165 47.9999 68.9968 47.524 67.8461 46.5709C66.6954 45.6046 66.1198 44.1472 66.1198 42.2C66.1198 40.2945 66.6813 38.851 67.8037 37.8708C68.9261 36.8899 70.4745 36.3994 72.4495 36.3994ZM72.6204 39.0687C71.2847 39.0687 70.5388 39.692 70.3827 40.9387H74.5171C74.5171 40.3641 74.3468 39.9091 74.0057 39.5731C73.6786 39.2364 73.2167 39.0687 72.6204 39.0687Z" fill="black"/>
<path d="M55.8354 47.748L50.6351 33.2891H55.6652L58.6058 42.9562H58.6913L61.6538 33.2891H66.4705L61.2914 47.748H55.8354Z" fill="black"/>
<path d="M133.273 27.9776C132.689 29.5325 131.972 30.7095 131.12 31.5082C130.282 32.3207 129.102 32.727 127.582 32.727C126.658 32.727 125.842 32.6011 125.131 32.3486V29.8476H126.836C127.901 29.8476 128.534 29.3363 128.732 28.3136L124.257 17.2173H128.818L130.971 24.5938H131.12L133.102 17.2173H137.279L133.273 27.9776Z" fill="black"/>
<path d="M123.994 17.2179V20.0551H121.606V24.2792C121.606 24.7835 121.692 25.1548 121.863 25.3929C122.034 25.6172 122.346 25.7292 122.8 25.7292H123.994V28.1881C123.653 28.3001 123.213 28.3912 122.673 28.4615C122.133 28.5311 121.663 28.5665 121.266 28.5665C120.016 28.5665 119.049 28.3419 118.368 27.8938C117.7 27.4458 117.366 26.6819 117.366 25.6031V20.0551H115.789V17.2179H117.536L118.453 13.8555H121.606V17.2179H123.994Z" fill="black"/>
<path d="M109.969 15.9147V13.0776H114.211V15.9147H109.969ZM109.969 28.314V17.2177H114.211V28.314H109.969Z" fill="black"/>
<path d="M108.278 17.2179V20.0551H105.892V24.2792C105.892 24.7835 105.977 25.1548 106.147 25.3929C106.319 25.6172 106.631 25.7292 107.085 25.7292H108.278V28.1881C107.938 28.3001 107.497 28.3912 106.958 28.4615C106.418 28.5311 105.949 28.5665 105.551 28.5665C104.3 28.5665 103.335 28.3419 102.652 27.8938C101.985 27.4458 101.651 26.6819 101.651 25.6031V20.0551H100.073V17.2179H101.821L102.738 13.8555H105.892V17.2179H108.278Z" fill="black"/>
<path d="M94.7458 16.9653C96.0527 16.9653 97.0331 17.3226 97.6865 18.0371C98.3406 18.7517 98.6669 19.7814 98.6669 21.1265V28.3138H94.4259V21.6308C94.4259 21.1545 94.298 20.7762 94.0423 20.496C93.8007 20.2017 93.4525 20.0547 92.9976 20.0547C92.4721 20.0547 92.0461 20.2228 91.7191 20.5591C91.392 20.8953 91.2289 21.3086 91.2289 21.799V28.3138H86.9878V17.2175H90.4617L90.7386 18.8988C91.1794 18.3104 91.7544 17.841 92.465 17.4908C93.1897 17.1404 93.9498 16.9653 94.7458 16.9653Z" fill="black"/>
<path d="M79.017 16.9653C81.0768 16.9653 82.647 17.4417 83.727 18.3945C84.8212 19.3471 85.368 20.8042 85.368 22.7656V23.4801H76.9282C76.9282 24.2788 77.1056 24.8812 77.4609 25.2875C77.8303 25.6939 78.406 25.8971 79.1872 25.8971C79.8978 25.8971 80.4163 25.7499 80.7427 25.4557C81.0838 25.1615 81.2547 24.7692 81.2547 24.2788H85.368C85.368 25.6238 84.8495 26.6746 83.8119 27.431C82.7749 28.1879 81.2618 28.5657 79.2727 28.5657C77.1839 28.5657 75.5642 28.0898 74.4129 27.1368C73.2622 26.1702 72.6865 24.7131 72.6865 22.7656C72.6865 20.8602 73.2481 19.4172 74.3705 18.4365C75.4929 17.4557 77.0419 16.9653 79.017 16.9653ZM79.1872 19.6343C77.8515 19.6343 77.1056 20.2578 76.9494 21.5047H81.0838C81.0838 20.9303 80.9136 20.475 80.5724 20.1387C80.246 19.8025 79.7841 19.6343 79.1872 19.6343Z" fill="black"/>
<path d="M67.5929 28.314L67.2305 26.7377C66.4069 27.9564 65.2131 28.5658 63.6499 28.5658C62.1298 28.5658 60.9579 28.076 60.1336 27.0951C59.3093 26.1143 58.8975 24.6642 58.8975 22.7448C58.8975 20.8394 59.3093 19.4033 60.1336 18.4366C60.9579 17.4558 62.1298 16.9655 63.6499 16.9655C64.9433 16.9655 65.9944 17.3928 66.8046 18.2474V13.0776H71.0456V28.314H67.5929ZM64.9715 20.0548C63.7495 20.0548 63.1385 20.7764 63.1385 22.2194V23.3333C63.1385 24.7622 63.7495 25.4768 64.9715 25.4768C65.5967 25.4768 66.0657 25.2596 66.3786 24.8253C66.6908 24.391 66.847 23.8236 66.847 23.1231V22.4296C66.847 21.7291 66.6908 21.1616 66.3786 20.7273C66.0657 20.279 65.5967 20.0548 64.9715 20.0548Z" fill="black"/>
<path d="M52.063 28.314V13.8555H56.7734V28.314H52.063Z" fill="black"/>
</svg>
