<svg width="129" height="48" viewBox="0 0 129 48" fill="none" xmlns="http://www.w3.org/2000/svg">
<g clip-path="url(#clip0_2988_630)">
<path d="M0.666656 4.6296C0.666656 5.1526 1.11763 5.39667 2.67867 5.71047C5.21104 6.3032 9.92888 8.0814 11.1777 8.95307C11.6981 9.3366 12.3225 10.0688 12.6 10.5569C12.8428 11.0799 14.8895 18.7506 17.1791 27.6416L21.3072 43.75L26.8229 43.6803L32.3386 43.5757L40.4561 24.2247C44.8964 13.5903 48.5388 4.76907 48.5388 4.59473C48.5388 4.45527 46.1452 4.35067 43.2659 4.35067H37.9584L32.7549 17.6C29.9103 24.8871 27.482 30.8493 27.3779 30.8493C27.2739 30.8493 26.1985 25.5496 25.019 19.0644C23.7702 12.4049 22.556 6.86107 22.2438 6.3032C21.9316 5.74533 21.0991 5.01313 20.4399 4.66447C19.3646 4.07174 18.3585 4.002 9.96357 4.002C1.15232 4.002 0.666656 4.03687 0.666656 4.6296Z" fill="#1A1F71"/>
<path d="M53.2223 4.4204C53.1182 4.66447 51.2102 13.6252 48.9554 24.2944L44.862 43.75H49.9961C52.806 43.75 55.1302 43.6803 55.1302 43.6105C55.1302 43.4013 63.0742 5.84994 63.3517 4.76907L63.5252 4.002H58.4604C54.7139 4.002 53.3263 4.1066 53.2223 4.4204Z" fill="#1A1F71"/>
<path d="M76.4641 4.49133C72.4748 5.7814 69.1099 8.43126 67.6182 11.4995C66.9938 12.7547 66.7163 13.9751 66.6469 15.9625C66.5081 18.3334 66.6122 18.8913 67.4101 20.5649C68.5201 22.7963 70.5668 24.714 73.5849 26.3179C80.8698 30.1532 82.2227 31.9314 79.6556 34.5115C77.4702 36.7081 72.1279 36.8476 66.6122 34.8602C65.3634 34.4069 64.288 34.0931 64.1839 34.1629C64.0104 34.3721 62.4494 41.3105 62.4147 42.0427C62.4147 42.4611 63.0391 42.8098 64.6002 43.2282C66.3694 43.6815 68.0345 43.7861 74.0358 43.6815L81.3207 43.5769L83.645 42.4263C88.4322 40.0902 91.2768 35.8713 91.3115 31.0946C91.3461 26.5619 89.2301 23.6331 83.8878 20.7043C79.6556 18.3683 77.9211 17.1828 77.3314 16.1019C76.8804 15.2651 76.8804 15.0559 77.3314 14.1843C78.6843 11.7436 84.0612 11.0811 88.9872 12.7547L91.4849 13.6264L92.2828 9.7562C92.7337 7.6642 93.1153 5.7814 93.1153 5.5722C93.1153 5.39787 92.2481 4.97947 91.2074 4.6308C88.8138 3.8986 78.6843 3.794 76.4641 4.49133Z" fill="#1A1F71"/>
<path d="M108.726 4.49042C108.171 4.73449 107.443 5.25749 107.13 5.60616C106.783 5.98969 103.314 14.0439 99.3597 23.5276C95.4051 33.0114 91.9014 41.4491 91.5545 42.251L90.8954 43.7503H96.203H101.545L102.517 40.8912L103.523 37.9973L110.148 37.8927L116.739 37.823L117.433 40.682L118.127 43.576L122.88 43.6806L127.667 43.7852L127.424 42.8089C127.285 42.2859 125.412 33.36 123.296 23.0046L119.411 4.17662L114.589 4.10689C111.154 4.03716 109.455 4.14175 108.726 4.49042ZM113.548 22.3073C114.276 25.7591 114.901 28.8622 115.005 29.176C115.178 29.7339 114.831 29.8036 111.016 29.8036C108.691 29.8036 106.818 29.699 106.818 29.5944C106.818 28.8274 111.848 15.5432 112.022 15.7524C112.195 15.8918 112.854 18.8555 113.548 22.3073Z" fill="#1A1F71"/>
</g>
<defs>
<clipPath id="clip0_2988_630">
<rect width="128" height="48" fill="white" transform="translate(0.666656)"/>
</clipPath>
</defs>
</svg>
