<svg width="40" height="40" viewBox="0 0 40 40" fill="none" xmlns="http://www.w3.org/2000/svg">
<rect width="40" height="40" rx="3" fill="#294F56"/>
<path d="M12.2411 19.7502C12.5333 20.0483 12.9905 20.0754 13.3127 19.8315L13.405 19.7502L20 13.0227L26.595 19.7502C26.8872 20.0483 27.3444 20.0754 27.6666 19.8315L27.7589 19.7502C28.0511 19.4521 28.0777 18.9857 27.8386 18.6571L27.7589 18.5629L20.582 11.242C20.2898 10.9439 19.8325 10.9168 19.5103 11.1607L19.418 11.242L12.2411 18.5629C11.9196 18.8908 11.9196 19.4223 12.2411 19.7502Z" fill="white"/>
<path d="M12.2411 28.7502C12.5333 29.0483 12.9905 29.0754 13.3127 28.8315L13.405 28.7502L20 22.0227L26.595 28.7502C26.8872 29.0483 27.3444 29.0754 27.6666 28.8315L27.7589 28.7502C28.0511 28.4521 28.0777 27.9857 27.8386 27.6571L27.7589 27.5629L20.582 20.242C20.2898 19.9439 19.8325 19.9168 19.5103 20.1607L19.418 20.242L12.2411 27.5629C11.9196 27.8908 11.9196 28.4223 12.2411 28.7502Z" fill="white"/>
</svg>
