<svg width="32" height="32" viewBox="0 0 32 32" fill="none" xmlns="http://www.w3.org/2000/svg">
<path d="M7.89738 2.01509C6.30719 0.978591 4.15188 1.15647 2.75881 2.54959C1.16019 4.14822 1.16019 6.74934 2.75881 8.34797L7.23438 12.824C7.41019 12.9998 7.64875 13.0987 7.89738 13.0987C8.146 13.0987 8.38456 12.9998 8.56038 12.824L13.036 8.34797H13.0359C14.6346 6.74934 14.6346 4.14822 13.0359 2.54959C11.6429 1.15647 9.48763 0.978529 7.89738 2.01509ZM11.7101 7.02215L7.89738 10.8353L4.08775 7.02565C3.21769 6.15553 3.21844 4.74822 4.08775 3.8789C4.95588 3.01078 6.3675 3.0119 7.2345 3.8789C7.60056 4.24497 8.19419 4.24503 8.56031 3.8789C9.42963 3.00953 10.8426 3.00797 11.7101 3.8754C12.5776 4.74297 12.5776 6.15459 11.7101 7.02215Z" fill="white"/>
<path d="M24.8422 17.9138C24.6646 17.6854 24.3915 17.5518 24.1022 17.5518C23.8129 17.5518 23.5398 17.6854 23.3622 17.9138L18.6366 23.9894C18.3733 24.328 18.3733 24.802 18.6366 25.1406L23.3622 31.2163C23.5398 31.4446 23.8129 31.5782 24.1022 31.5782C24.3915 31.5782 24.6646 31.4446 24.8422 31.2163L29.5678 25.1406C29.8311 24.802 29.8311 24.328 29.5678 23.9894L24.8422 17.9138ZM24.1022 29.1138L20.5643 24.5651L24.1022 20.0164L27.6401 24.5651L24.1022 29.1138Z" fill="white"/>
<path d="M13.036 22.3026L8.56038 17.8265C8.38456 17.6507 8.146 17.5519 7.89738 17.5519C7.64875 17.5519 7.41019 17.6507 7.23438 17.8265L2.75875 22.3026C1.16013 23.9012 1.16019 26.5023 2.75881 28.1009C3.89294 29.2351 5.53231 29.5637 6.96063 29.0873L6.96144 31.0625C6.96144 31.5803 7.38119 32 7.89894 32C8.41669 32 8.83644 31.5803 8.83644 31.0625L8.83563 29.0878C10.2636 29.5634 11.9022 29.2347 13.0359 28.1009C14.6346 26.5023 14.6346 23.9011 13.036 22.3026ZM11.7101 26.7751C10.8428 27.6424 9.42975 27.6409 8.56038 26.7716C8.37731 26.5884 8.13744 26.4969 7.8975 26.4969C7.65763 26.4969 7.41763 26.5885 7.23463 26.7715C6.36706 27.6391 4.9555 27.6391 4.08788 26.7715C3.66756 26.3512 3.43613 25.7924 3.43613 25.1981C3.43613 24.6038 3.66763 24.0451 4.08788 23.6248L7.8975 19.8151L11.7102 23.6282C12.5777 24.4959 12.5776 25.9075 11.7101 26.7751Z" fill="white"/>
<path d="M21.7017 12.0331C22.207 12.0331 22.7029 11.9334 23.1637 11.7483L23.1647 13.7632C23.1647 14.2809 23.5845 14.7007 24.1022 14.7007C24.62 14.7007 25.0397 14.2809 25.0397 13.7632L25.0387 11.7474C25.5 11.933 25.9967 12.0331 26.5027 12.0331C28.6738 12.0331 30.4402 10.2666 30.4402 8.09519C30.4402 6.46856 29.4469 5.04969 28.0066 4.45481C28.0289 4.28456 28.0402 4.11212 28.0402 3.93794C28.0401 1.76656 26.2736 0 24.1022 0C21.9308 0 20.1642 1.76656 20.1642 3.93794C20.1642 4.11212 20.1754 4.28456 20.1978 4.45487C18.7576 5.04975 17.7643 6.46856 17.7643 8.09525C17.7643 10.2666 19.5306 12.0331 21.7017 12.0331ZM21.4541 6.04719C21.7475 6.01206 22.0072 5.84069 22.1549 5.58475C22.3025 5.32875 22.3208 5.01813 22.2043 4.74656C22.0948 4.49137 22.0392 4.21931 22.0392 3.93794C22.0392 2.80044 22.9647 1.875 24.1022 1.875C25.2397 1.875 26.1651 2.80044 26.1651 3.93794C26.1651 4.21944 26.1096 4.4915 26.0001 4.74662C25.8836 5.01819 25.9019 5.32875 26.0496 5.58475C26.1973 5.84075 26.457 6.01206 26.7504 6.04719C27.7849 6.17087 28.5651 7.05131 28.5651 8.09519C28.5651 9.23269 27.6399 10.1581 26.5026 10.1581C25.8481 10.1581 25.2464 9.85681 24.8516 9.33144C24.6746 9.09575 24.3969 8.95712 24.1021 8.95712C23.8073 8.95712 23.5297 9.09581 23.3526 9.3315C22.9579 9.85681 22.3562 10.1581 21.7017 10.1581C20.5644 10.1581 19.6392 9.23269 19.6392 8.09519C19.6393 7.05131 20.4194 6.17087 21.4541 6.04719Z" fill="white"/>
</svg>
