<svg width="86" height="48" viewBox="0 0 86 48" fill="none" xmlns="http://www.w3.org/2000/svg">
<g clip-path="url(#clip0_2988_642)">
<path d="M86 0H0V48H86V0Z" fill="#E87722"/>
<path d="M30.0194 14.6427C30.352 14.6427 30.6386 14.9251 30.6386 15.2131V28.1448C30.6386 28.5119 30.4322 28.8789 30.1456 29.1218C27.6688 31.1942 23.8733 32.414 19.9058 32.414C10.9905 32.414 5.04504 26.558 5.04504 17.7768C5.04504 8.99565 10.9905 3.13965 19.9058 3.13965C22.9617 3.13965 26.1781 4.03188 28.5746 5.50012C28.9072 5.66388 29.0276 5.98577 28.9473 6.23424L26.8833 12.2088C26.7572 12.4912 26.4705 12.6154 26.0978 12.5364C24.4065 11.6441 22.2164 11.1133 20.1524 11.1133C16.3569 11.1133 13.7941 13.7956 13.7941 17.7825C13.7941 21.7693 16.3512 24.5307 20.1524 24.5307C21.6774 24.5307 22.7094 24.2484 23.1681 23.7571V21.3966H19.3726C19 21.3966 18.7534 21.2328 18.7133 20.9505L18.1744 15.3373C18.1342 14.9307 18.3808 14.6484 18.8337 14.6484H30.0194V14.6427Z" fill="white"/>
<path d="M55.9448 29.3634C56.071 29.6514 55.9047 29.9337 55.5722 30.0975C53.1756 31.5601 49.9592 32.4579 46.9034 32.4579C38.4008 32.4579 32.7019 26.6019 32.7019 17.8208C32.7019 9.03959 38.4008 3.18359 46.9034 3.18359C49.9592 3.18359 53.1756 4.07583 55.5722 5.54406C55.9047 5.70783 56.0652 5.99018 55.9448 6.27818L53.2215 11.9309C53.0552 12.2979 52.7686 12.4165 52.436 12.2584C50.911 11.4057 49.4203 11.1177 47.6487 11.1177C43.9335 11.1177 41.4567 13.8001 41.4567 17.8264C41.4567 21.8528 43.9335 24.5351 47.6487 24.5351C49.426 24.5351 50.911 24.2528 52.436 23.3944C52.7686 23.2307 53.0552 23.3549 53.2215 23.7219L55.9448 29.3747V29.3634Z" fill="white"/>
<path d="M71.3003 3.79004C76.7069 3.79004 80.3017 6.96369 80.3017 11.7185C80.3017 14.6437 78.8568 16.8009 76.6266 17.4503C79.2295 18.0997 80.9209 20.5392 80.9209 23.9162C80.9209 28.671 77.3318 31.8446 71.9654 31.8446H58.8762C58.5494 31.8446 58.2971 31.5623 58.2971 31.2743V4.39992C58.2971 4.11757 58.5437 3.79004 58.8762 3.79004H71.3061H71.3003ZM69.4026 14.8075C70.641 14.8075 71.4666 14.0733 71.4666 12.9383C71.4666 11.8032 70.641 11.0691 69.4026 11.0691H66.7997V14.8075H69.4026ZM70.1422 24.5656C71.3405 24.5656 72.1661 23.7919 72.1661 22.6117C72.1661 21.4315 71.3405 20.6578 70.1422 20.6578H66.7997V24.5599H70.1422V24.5656Z" fill="white"/>
<path d="M19.791 43.6481C19.8196 43.6989 19.791 43.7723 19.7279 43.8232C19.1718 44.1676 18.4035 44.4048 17.8187 44.4048C15.9496 44.4048 14.7112 43.2246 14.7112 41.457C14.7112 39.6895 15.9496 38.5093 17.8187 38.5093C18.4092 38.5093 19.1718 38.7408 19.7279 39.0909C19.791 39.1417 19.8196 39.2152 19.791 39.266L19.1947 40.5083C19.1546 40.5874 19.08 40.6213 19.0112 40.5705C18.7532 40.3897 18.3634 40.2655 18.0194 40.2655C17.2683 40.2655 16.7695 40.7455 16.7695 41.4627C16.7695 42.1799 17.2626 42.6599 18.0194 42.6599C18.3576 42.6599 18.7532 42.5356 19.0112 42.3549C19.0858 42.3041 19.1546 42.3323 19.1947 42.417L19.791 43.6594V43.6481Z" fill="white"/>
<path d="M25.1577 43.6707C25.1807 43.7441 25.1577 43.7836 25.0832 43.8232C24.5328 44.1789 23.7416 44.3935 22.9447 44.3935C21.1157 44.3935 19.9003 43.2133 19.9003 41.457C19.9003 39.7008 21.0985 38.5093 22.8931 38.5093C24.6876 38.5093 25.6164 39.5992 25.6164 41.4457C25.6164 41.5982 25.6049 41.7507 25.5763 41.9032C25.5648 41.9822 25.5132 42.0274 25.4215 42.0274H22.1076C22.1076 42.0274 22.1076 42.6655 22.9733 42.6655C23.5008 42.6655 24.0856 42.5413 24.5557 42.3323C24.6303 42.3041 24.6876 42.3436 24.7105 42.4114L25.152 43.6707H25.1577ZM23.5696 40.9545C23.5696 40.5083 23.2887 40.2147 22.8759 40.2147C22.4115 40.2147 22.1019 40.5083 22.1019 40.9545H23.5696Z" fill="white"/>
<path d="M29.4689 38.645C29.5491 38.645 29.6122 38.7071 29.6122 38.7862V40.1076C29.6122 40.1867 29.5491 40.2488 29.4689 40.2488H29.1994C28.8095 40.2488 28.4541 40.4238 28.3222 40.678V44.0831C28.3222 44.1622 28.2477 44.2356 28.1674 44.2356H26.3499C26.2697 44.2356 26.1951 44.1622 26.1951 44.0831V38.7975C26.1951 38.7241 26.2697 38.6563 26.3499 38.6563H27.5138C27.5941 38.6563 27.6457 38.7297 27.6801 38.8088L27.8349 39.2549C28.1445 38.8765 28.649 38.645 29.1994 38.645H29.4689Z" fill="white"/>
<path d="M33.5574 38.6448C33.6491 38.6448 33.7122 38.7069 33.7122 38.786L33.5975 39.7742C33.586 39.8533 33.523 39.9267 33.4427 39.9267H32.7834V44.0829C32.7834 44.162 32.7088 44.2354 32.6286 44.2354H30.8111C30.7308 44.2354 30.6563 44.162 30.6563 44.0829V39.9267H30.0658C29.9912 39.9267 29.9224 39.8645 29.9224 39.7855V38.7972C29.9224 38.7069 29.997 38.6448 30.0658 38.6448H30.6563V37.538C30.6563 37.4645 30.7308 37.4081 30.8111 37.3968L32.6286 37.2217C32.7088 37.2104 32.7834 37.2951 32.7834 37.3629V38.6448H33.5574Z" fill="white"/>
<path d="M34.9615 44.3828C34.4169 44.3828 34.0557 44.0496 34.0557 43.547C34.0557 43.0445 34.4169 42.6943 34.9615 42.6943C35.5062 42.6943 35.8674 43.0388 35.8674 43.547C35.8674 44.0553 35.5062 44.3828 34.9615 44.3828Z" fill="white"/>
<path d="M40.0588 43.5065C39.8925 43.834 39.3995 44.043 38.8204 44.043C37.3125 44.043 36.3092 42.9757 36.3092 41.3663C36.3092 39.5649 37.238 38.4976 38.8204 38.4976C39.6173 38.4976 40.248 38.7121 40.5117 39.0792L40.6952 38.7969C40.7583 38.7065 40.85 38.6444 40.936 38.6444H42.0311C42.1228 38.6444 42.1859 38.7065 42.1859 38.7969V43.7154C42.1859 45.2514 40.7697 46.2792 39.0153 46.2792C37.9948 46.2792 37.0832 46.0477 36.5787 45.6411C36.5156 45.5903 36.4984 45.5169 36.5156 45.466L37.0431 44.2067C37.0717 44.1333 37.1348 44.1051 37.1979 44.1446C37.6393 44.5004 38.3216 44.715 39.0153 44.715C39.6632 44.715 40.0588 44.3761 40.0588 43.8001V43.5065ZM40.0588 40.8637C40.0588 40.8637 39.904 40.4063 39.3479 40.4063C38.8319 40.4063 38.5337 40.762 38.5337 41.3719C38.5337 41.9818 38.8319 42.3489 39.3479 42.3489C39.904 42.3489 40.0588 41.8914 40.0588 41.8914V40.8637Z" fill="white"/>
<path d="M47.8377 43.6481C47.8664 43.6989 47.8377 43.7723 47.7747 43.8232C47.2185 44.1676 46.4503 44.4048 45.8655 44.4048C43.9964 44.4048 42.758 43.2246 42.758 41.457C42.758 39.6895 43.9964 38.5093 45.8655 38.5093C46.456 38.5093 47.2185 38.7408 47.7747 39.0909C47.8377 39.1417 47.8664 39.2152 47.8377 39.266L47.2415 40.5083C47.2013 40.5874 47.1268 40.6213 47.058 40.5705C46.8 40.3897 46.4044 40.2655 46.0661 40.2655C45.3151 40.2655 44.8163 40.7455 44.8163 41.4627C44.8163 42.1799 45.3093 42.6599 46.0661 42.6599C46.4044 42.6599 46.8 42.5356 47.058 42.3549C47.1325 42.3041 47.2013 42.3323 47.2415 42.417L47.8377 43.6594V43.6481Z" fill="white"/>
<path d="M50.556 38.8874C50.8656 38.6445 51.33 38.5034 51.8174 38.5034C53.4514 38.5034 54.5407 39.6836 54.5407 41.4398C54.5407 43.1961 53.4456 44.3876 51.8174 44.3876C51.1236 44.3876 50.4643 44.1222 50.0744 43.7156L49.9196 44.0827C49.8795 44.173 49.8279 44.2351 49.7534 44.2351H48.5838C48.5035 44.2351 48.429 44.1617 48.429 44.0827V37.0069C48.429 36.9335 48.5035 36.8657 48.5838 36.8657H50.4012C50.4815 36.8657 50.556 36.9391 50.556 37.0069V38.8874ZM50.556 42.0949C50.6822 42.4281 51.009 42.654 51.3702 42.654C51.9378 42.654 52.3219 42.1683 52.3219 41.4342C52.3219 40.7001 51.9378 40.254 51.3702 40.254C51.009 40.254 50.6764 40.4798 50.556 40.813V42.0949Z" fill="white"/>
<path d="M55.8876 44.3828C55.343 44.3828 54.9818 44.0496 54.9818 43.547C54.9818 43.0445 55.343 42.6943 55.8876 42.6943C56.4323 42.6943 56.7935 43.0388 56.7935 43.547C56.7935 44.0553 56.4323 44.3828 55.8876 44.3828Z" fill="white"/>
<path d="M62.3211 43.6481C62.3497 43.6989 62.3211 43.7723 62.258 43.8232C61.7019 44.1676 60.9336 44.4048 60.3488 44.4048C58.4797 44.4048 57.2413 43.2246 57.2413 41.457C57.2413 39.6895 58.4797 38.5093 60.3488 38.5093C60.9393 38.5093 61.7019 38.7408 62.258 39.0909C62.3211 39.1417 62.3497 39.2152 62.3211 39.266L61.7248 40.5083C61.6847 40.5874 61.6101 40.6213 61.5413 40.5705C61.2833 40.3897 60.8935 40.2655 60.5495 40.2655C59.7984 40.2655 59.2996 40.7455 59.2996 41.4627C59.2996 42.1799 59.7927 42.6599 60.5495 42.6599C60.8935 42.6599 61.2833 42.5356 61.5413 42.3549C61.6159 42.3041 61.6847 42.3323 61.7248 42.417L62.3211 43.6594V43.6481Z" fill="white"/>
<path d="M71.3797 38.645C71.46 38.645 71.5116 38.7184 71.4829 38.7862L69.803 44.0944C69.7801 44.1678 69.6998 44.2356 69.6196 44.2356H68.02C67.9397 44.2356 67.8422 44.1622 67.8136 44.0944L67.0166 41.3895L66.2197 44.0944C66.191 44.1678 66.0936 44.2356 66.0133 44.2356H64.4137C64.3334 44.2356 64.2474 44.1622 64.2302 44.0944L62.5504 38.7862C62.5217 38.7128 62.5733 38.645 62.6536 38.645H64.7405C64.8322 38.645 64.9182 38.7071 64.9354 38.7862L65.4744 41.0111L66.0305 38.7862C66.0534 38.6845 66.1452 38.645 66.214 38.645H67.825C67.9798 38.645 67.9913 38.6845 68.0085 38.7862L68.5646 41.0111L69.1036 38.7862C69.1265 38.7071 69.2068 38.645 69.2985 38.645H71.3854H71.3797Z" fill="white"/>
</g>
<defs>
<clipPath id="clip0_2988_642">
<rect width="86" height="48" fill="white"/>
</clipPath>
</defs>
</svg>
